<?xml version="1.0" encoding="UTF-8"?> <!-- Generator: Adobe Illustrator 23.0.3, SVG Export Plug-In . SVG Version: 6.00 Build 0) --> <svg xmlns="http://www.w3.org/2000/svg" xmlns:xlink="http://www.w3.org/1999/xlink" version="1.1" id="Layer_1" x="0px" y="0px" viewBox="0 0 1920 915.7" style="enable-background:new 0 0 1920 915.7;" xml:space="preserve"> <style type="text/css"> .st0{fill:#EBF5FF;} .st1{opacity:0.6;clip-path:url(#SVGID_2_);} .st2{fill:none;stroke:#2176FF;stroke-width:0.15;stroke-miterlimit:10;} .st3{opacity:0.6;clip-path:url(#SVGID_4_);} .st4{opacity:0.26;clip-path:url(#SVGID_6_);} .st5{fill:#2176FF;} </style> <path class="st0" d="M1920,15.4c-61.4,44.7-128.5,77.3-202.8,94.3c-51.5,11.8-103.7,15.3-156.4,12.1c-53.8-3.3-106-15.4-157.9-28.8 c-83.2-21.6-166.6-42.7-250.8-60.1c-66.5-13.7-133.5-24.2-201.3-28.7c-19.8-1.3-39.7-2.1-59.6-3.1c-2-0.1-3.9-0.5-5.9-0.7 c-25.8,0-51.5,0-77.3,0c-12,0.6-24,1.3-36,1.9c-59.7,3-118.9,9.8-177.8,19.6c-69.5,11.5-137.4,29.4-205.4,47 C348.3,79.2,307.5,88,266,93.1c-56.6,6.9-112.7,4.7-168.2-9.3C67,76.1,36.1,69.3,5.2,62c-1.4-0.3-2.9-0.6-5.1-1.1c0,2.3,0,4.2,0,6.1 C0,187,0,307,0,426.9c-0.1,90.3-0.2,180.6-0.3,270.9c0,2.1-0.3,4.3-0.5,6.4c0,51.2,0,160.3,0,211.5H1920V15.4z"></path> <g> <defs> <path id="SVGID_1_" d="M1920,15.4c-61.4,44.7-128.5,77.3-202.8,94.3c-51.5,11.8-103.7,15.3-156.4,12.1 c-53.8-3.3-106-15.4-157.9-28.8c-83.2-21.6-166.6-42.7-250.8-60.1c-66.5-13.7-133.5-24.2-201.3-28.7c-19.8-1.3-39.7-2.1-59.6-3.1 c-2-0.1-3.9-0.5-5.9-0.7c-25.8,0-51.5,0-77.3,0c-12,0.6-24,1.3-36,1.9c-59.7,3-118.9,9.8-177.8,19.6 c-69.5,11.5-137.4,29.4-205.4,47C348.3,79.2,307.5,88,266,93.1c-56.6,6.9-112.7,4.7-168.2-9.3C67,76.1,36.1,69.3,5.2,62 c-1.4-0.3-2.9-0.6-5.1-1.1c0,2.3,0,4.2,0,6.1C0,187,0,307,0,426.9c-0.1,90.3-0.2,180.6-0.3,270.9c0,2.1-0.3,4.3-0.5,6.4 c0,51.2,0,160.3,0,211.5H1920V15.4z"></path> </defs> <clipPath id="SVGID_2_"> <use xlink:href="#SVGID_1_" style="overflow:visible;"></use> </clipPath> <g class="st1"> <g> <circle class="st2" cx="1706.1" cy="66.6" r="233.4"></circle> </g> <g> <circle class="st2" cx="1706.1" cy="66.6" r="234.5"></circle> </g> <g> <circle class="st2" cx="1706.1" cy="66.6" r="235.7"></circle> </g> <g> <circle class="st2" cx="1706.1" cy="66.6" r="236.9"></circle> </g> <g> <circle class="st2" cx="1706.1" cy="66.6" r="238.1"></circle> </g> <g> <circle class="st2" cx="1706.1" cy="66.6" r="239.3"></circle> </g> <g> <circle class="st2" cx="1706.1" cy="66.6" r="240.4"></circle> </g> <g> <circle class="st2" cx="1706.1" cy="66.6" r="241.6"></circle> </g> <g> <circle class="st2" cx="1706.1" cy="66.6" r="242.9"></circle> </g> <g> <circle class="st2" cx="1706.1" cy="66.6" r="244.1"></circle> </g> <g> <circle class="st2" cx="1706.1" cy="66.6" r="245.3"></circle> </g> <g> <circle class="st2" cx="1706.1" cy="66.6" r="246.5"></circle> </g> <g> <circle class="st2" cx="1706.1" cy="66.6" r="247.8"></circle> </g> <g> <circle class="st2" cx="1706.1" cy="66.6" r="249"></circle> </g> <g> <circle class="st2" cx="1706.1" cy="66.6" r="250.2"></circle> </g> <g> <circle class="st2" cx="1706.1" cy="66.6" r="251.5"></circle> </g> <g> <circle class="st2" cx="1706.1" cy="66.6" r="252.7"></circle> </g> <g> <circle class="st2" cx="1706.1" cy="66.6" r="254"></circle> </g> <g> <circle class="st2" cx="1706.1" cy="66.6" r="255.3"></circle> </g> <g> <circle class="st2" cx="1706.1" cy="66.6" r="256.6"></circle> </g> <g> <circle class="st2" cx="1706.1" cy="66.6" r="257.8"></circle> </g> <g> <circle class="st2" cx="1706.1" cy="66.6" r="259.1"></circle> </g> <g> <circle class="st2" cx="1706.1" cy="66.6" r="260.4"></circle> </g> <g> <circle class="st2" cx="1706.1" cy="66.6" r="261.7"></circle> </g> <g> <circle class="st2" cx="1706.1" cy="66.6" r="263"></circle> </g> <g> <circle class="st2" cx="1706.1" cy="66.6" r="264.3"></circle> </g> <g> <circle class="st2" cx="1706.1" cy="66.6" r="265.7"></circle> </g> <g> <circle class="st2" cx="1706.1" cy="66.6" r="267"></circle> </g> <g> <circle class="st2" cx="1706.1" cy="66.6" r="268.3"></circle> </g> <g> <circle class="st2" cx="1706.1" cy="66.6" r="269.7"></circle> </g> <g> <circle class="st2" cx="1706.1" cy="66.6" r="271"></circle> </g> <g> <circle class="st2" cx="1706.1" cy="66.6" r="272.4"></circle> </g> <g> <circle class="st2" cx="1706.1" cy="66.6" r="273.7"></circle> </g> <g> <circle class="st2" cx="1706.1" cy="66.6" r="275.1"></circle> </g> <g> <circle class="st2" cx="1706.1" cy="66.6" r="276.5"></circle> </g> <g> <circle class="st2" cx="1706.1" cy="66.6" r="277.9"></circle> </g> <g> <circle class="st2" cx="1706.1" cy="66.6" r="279.3"></circle> </g> <g> <circle class="st2" cx="1706.1" cy="66.6" r="280.7"></circle> </g> <g> <circle class="st2" cx="1706.1" cy="66.6" r="282.1"></circle> </g> <g> <circle class="st2" cx="1706.1" cy="66.6" r="283.5"></circle> </g> <g> <circle class="st2" cx="1706.1" cy="66.6" r="284.9"></circle> </g> <g> <circle class="st2" cx="1706.1" cy="66.6" r="286.3"></circle> </g> <g> <circle class="st2" cx="1706.1" cy="66.6" r="287.7"></circle> </g> <g> <circle class="st2" cx="1706.1" cy="66.6" r="289.2"></circle> </g> <g> <circle class="st2" cx="1706.1" cy="66.6" r="290.6"></circle> </g> <g> <circle class="st2" cx="1706.1" cy="66.6" r="292.1"></circle> </g> <g> <circle class="st2" cx="1706.1" cy="66.6" r="293.5"></circle> </g> <g> <circle class="st2" cx="1706.1" cy="66.6" r="295"></circle> </g> <g> <circle class="st2" cx="1706.1" cy="66.6" r="296.5"></circle> </g> <g> <circle class="st2" cx="1706.1" cy="66.6" r="298"></circle> </g> <g> <circle class="st2" cx="1706.1" cy="66.6" r="299.5"></circle> </g> <g> <circle class="st2" cx="1706.1" cy="66.6" r="300.9"></circle> </g> <g> <circle class="st2" cx="1706.1" cy="66.6" r="302.5"></circle> </g> <g> <circle class="st2" cx="1706.1" cy="66.6" r="304"></circle> </g> <g> <circle class="st2" cx="1706.1" cy="66.6" r="305.5"></circle> </g> <g> <circle class="st2" cx="1706.1" cy="66.6" r="307"></circle> </g> <g> <circle class="st2" cx="1706.1" cy="66.6" r="308.5"></circle> </g> <g> <circle class="st2" cx="1706.1" cy="66.6" r="310.1"></circle> </g> <g> <circle class="st2" cx="1706.1" cy="66.6" r="311.6"></circle> </g> <g> <circle class="st2" cx="1706.1" cy="66.6" r="313.2"></circle> </g> <g> <circle class="st2" cx="1706.1" cy="66.6" r="314.8"></circle> </g> <g> <circle class="st2" cx="1706.1" cy="66.6" r="316.3"></circle> </g> <g> <circle class="st2" cx="1706.1" cy="66.6" r="317.9"></circle> </g> <g> <circle class="st2" cx="1706.1" cy="66.6" r="319.5"></circle> </g> <g> <circle class="st2" cx="1706.1" cy="66.6" r="321.1"></circle> </g> <g> <circle class="st2" cx="1706.1" cy="66.6" r="322.7"></circle> </g> <g> <circle class="st2" cx="1706.1" cy="66.6" r="324.3"></circle> </g> <g> <circle class="st2" cx="1706.1" cy="66.6" r="325.9"></circle> </g> <g> <circle class="st2" cx="1706.1" cy="66.6" r="327.6"></circle> </g> <g> <circle class="st2" cx="1706.1" cy="66.6" r="329.2"></circle> </g> <g> <circle class="st2" cx="1706.1" cy="66.6" r="330.9"></circle> </g> <g> <circle class="st2" cx="1706.1" cy="66.6" r="332.5"></circle> </g> <g> <circle class="st2" cx="1706.1" cy="66.6" r="334.2"></circle> </g> <g> <circle class="st2" cx="1706.1" cy="66.6" r="335.8"></circle> </g> <g> <circle class="st2" cx="1706.1" cy="66.6" r="337.5"></circle> </g> <g> <circle class="st2" cx="1706.1" cy="66.6" r="339.2"></circle> </g> <g> <circle class="st2" cx="1706.1" cy="66.6" r="340.9"></circle> </g> <g> <circle class="st2" cx="1706.1" cy="66.6" r="342.6"></circle> </g> <g> <circle class="st2" cx="1706.1" cy="66.6" r="344.3"></circle> </g> </g> </g> <g> <defs> <path id="SVGID_3_" d="M1920,15.4c-61.4,44.7-128.5,77.3-202.8,94.3c-51.5,11.8-103.7,15.3-156.4,12.1 c-53.8-3.3-106-15.4-157.9-28.8c-83.2-21.6-166.6-42.7-250.8-60.1c-66.5-13.7-133.5-24.2-201.3-28.7c-19.8-1.3-39.7-2.1-59.6-3.1 c-2-0.1-3.9-0.5-5.9-0.7c-25.8,0-51.5,0-77.3,0c-12,0.6-24,1.3-36,1.9c-59.7,3-118.9,9.8-177.8,19.6 c-69.5,11.5-137.4,29.4-205.4,47C348.3,79.2,307.5,88,266,93.1c-56.6,6.9-112.7,4.7-168.2-9.3C67,76.1,36.1,69.3,5.2,62 c-1.4-0.3-2.9-0.6-5.1-1.1c0,2.3,0,4.2,0,6.1C0,187,0,307,0,426.9c-0.1,90.3-0.2,180.6-0.3,270.9c0,2.1-0.3,4.3-0.5,6.4 c0,51.2,0,160.3,0,211.5H1920V15.4z"></path> </defs> <clipPath id="SVGID_4_"> <use xlink:href="#SVGID_3_" style="overflow:visible;"></use> </clipPath> <g class="st3"> <g> <circle class="st2" cx="118" cy="777.5" r="188.1"></circle> </g> <g> <circle class="st2" cx="118" cy="777.5" r="189"></circle> </g> <g> <circle class="st2" cx="118" cy="777.5" r="190"></circle> </g> <g> <circle class="st2" cx="118" cy="777.5" r="190.9"></circle> </g> <g> <circle class="st2" cx="118" cy="777.5" r="191.9"></circle> </g> <g> <circle class="st2" cx="118" cy="777.5" r="192.8"></circle> </g> <g> <circle class="st2" cx="118" cy="777.5" r="193.8"></circle> </g> <g> <circle class="st2" cx="118" cy="777.5" r="194.7"></circle> </g> <g> <circle class="st2" cx="118" cy="777.5" r="195.7"></circle> </g> <g> <circle class="st2" cx="118" cy="777.5" r="196.7"></circle> </g> <g> <circle class="st2" cx="118" cy="777.5" r="197.7"></circle> </g> <g> <circle class="st2" cx="118" cy="777.5" r="198.7"></circle> </g> <g> <circle class="st2" cx="118" cy="777.5" r="199.7"></circle> </g> <g> <circle class="st2" cx="118" cy="777.5" r="200.7"></circle> </g> <g> <circle class="st2" cx="118" cy="777.5" r="201.7"></circle> </g> <g> <circle class="st2" cx="118" cy="777.5" r="202.7"></circle> </g> <g> <circle class="st2" cx="118" cy="777.5" r="203.7"></circle> </g> <g> <circle class="st2" cx="118" cy="777.5" r="204.7"></circle> </g> <g> <circle class="st2" cx="118" cy="777.5" r="205.7"></circle> </g> <g> <circle class="st2" cx="118" cy="777.5" r="206.8"></circle> </g> <g> <circle class="st2" cx="118" cy="777.5" r="207.8"></circle> </g> <g> <circle class="st2" cx="118" cy="777.5" r="208.8"></circle> </g> <g> <circle class="st2" cx="118" cy="777.5" r="209.9"></circle> </g> <g> <circle class="st2" cx="118" cy="777.5" r="210.9"></circle> </g> <g> <circle class="st2" cx="118" cy="777.5" r="212"></circle> </g> <g> <circle class="st2" cx="118" cy="777.5" r="213"></circle> </g> <g> <circle class="st2" cx="118" cy="777.5" r="214.1"></circle> </g> <g> <circle class="st2" cx="118" cy="777.5" r="215.2"></circle> </g> <g> <circle class="st2" cx="118" cy="777.5" r="216.3"></circle> </g> <g> <circle class="st2" cx="118" cy="777.5" r="217.3"></circle> </g> <g> <circle class="st2" cx="118" cy="777.5" r="218.4"></circle> </g> <g> <circle class="st2" cx="118" cy="777.5" r="219.5"></circle> </g> <g> <circle class="st2" cx="118" cy="777.5" r="220.6"></circle> </g> <g> <circle class="st2" cx="118" cy="777.5" r="221.7"></circle> </g> <g> <circle class="st2" cx="118" cy="777.5" r="222.8"></circle> </g> <g> <circle class="st2" cx="118" cy="777.5" r="223.9"></circle> </g> <g> <circle class="st2" cx="118" cy="777.5" r="225.1"></circle> </g> <g> <circle class="st2" cx="118" cy="777.5" r="226.2"></circle> </g> <g> <circle class="st2" cx="118" cy="777.5" r="227.3"></circle> </g> <g> <circle class="st2" cx="118" cy="777.5" r="228.4"></circle> </g> <g> <circle class="st2" cx="118" cy="777.5" r="229.6"></circle> </g> <g> <circle class="st2" cx="118" cy="777.5" r="230.7"></circle> </g> <g> <circle class="st2" cx="118" cy="777.5" r="231.9"></circle> </g> <g> <circle class="st2" cx="118" cy="777.5" r="233.1"></circle> </g> <g> <circle class="st2" cx="118" cy="777.5" r="234.2"></circle> </g> <g> <circle class="st2" cx="118" cy="777.5" r="235.4"></circle> </g> <g> <circle class="st2" cx="118" cy="777.5" r="236.6"></circle> </g> <g> <circle class="st2" cx="118" cy="777.5" r="237.7"></circle> </g> <g> <circle class="st2" cx="118" cy="777.5" r="238.9"></circle> </g> <g> <circle class="st2" cx="118" cy="777.5" r="240.1"></circle> </g> <g> <circle class="st2" cx="118" cy="777.5" r="241.3"></circle> </g> <g> <circle class="st2" cx="118" cy="777.5" r="242.5"></circle> </g> <g> <circle class="st2" cx="118" cy="777.5" r="243.8"></circle> </g> <g> <circle class="st2" cx="118" cy="777.5" r="245"></circle> </g> <g> <circle class="st2" cx="118" cy="777.5" r="246.2"></circle> </g> <g> <circle class="st2" cx="118" cy="777.5" r="247.4"></circle> </g> <g> <circle class="st2" cx="118" cy="777.5" r="248.7"></circle> </g> <g> <circle class="st2" cx="118" cy="777.5" r="249.9"></circle> </g> <g> <circle class="st2" cx="118" cy="777.5" r="251.2"></circle> </g> <g> <circle class="st2" cx="118" cy="777.5" r="252.4"></circle> </g> <g> <circle class="st2" cx="118" cy="777.5" r="253.7"></circle> </g> <g> <circle class="st2" cx="118" cy="777.5" r="254.9"></circle> </g> <g> <circle class="st2" cx="118" cy="777.5" r="256.2"></circle> </g> <g> <circle class="st2" cx="118" cy="777.5" r="257.5"></circle> </g> <g> <circle class="st2" cx="118" cy="777.5" r="258.8"></circle> </g> <g> <circle class="st2" cx="118" cy="777.5" r="260.1"></circle> </g> <g> <circle class="st2" cx="118" cy="777.5" r="261.4"></circle> </g> <g> <circle class="st2" cx="118" cy="777.5" r="262.7"></circle> </g> <g> <circle class="st2" cx="118" cy="777.5" r="264"></circle> </g> <g> <circle class="st2" cx="118" cy="777.5" r="265.3"></circle> </g> <g> <circle class="st2" cx="118" cy="777.5" r="266.6"></circle> </g> <g> <circle class="st2" cx="118" cy="777.5" r="268"></circle> </g> <g> <circle class="st2" cx="118" cy="777.5" r="269.3"></circle> </g> <g> <circle class="st2" cx="118" cy="777.5" r="270.7"></circle> </g> <g> <circle class="st2" cx="118" cy="777.5" r="272"></circle> </g> <g> <circle class="st2" cx="118" cy="777.5" r="273.4"></circle> </g> <g> <circle class="st2" cx="118" cy="777.5" r="274.7"></circle> </g> <g> <circle class="st2" cx="118" cy="777.5" r="276.1"></circle> </g> <g> <circle class="st2" cx="118" cy="777.5" r="277.5"></circle> </g> </g> </g> <g> <defs> <path id="SVGID_5_" d="M1920,15.4c-61.4,44.7-128.5,77.3-202.8,94.3c-51.5,11.8-103.7,15.3-156.4,12.1 c-53.8-3.3-106-15.4-157.9-28.8c-83.2-21.6-166.6-42.7-250.8-60.1c-66.5-13.7-133.5-24.2-201.3-28.7c-19.8-1.3-39.7-2.1-59.6-3.1 c-2-0.1-3.9-0.5-5.9-0.7c-25.8,0-51.5,0-77.3,0c-12,0.6-24,1.3-36,1.9c-59.7,3-118.9,9.8-177.8,19.6 c-69.5,11.5-137.4,29.4-205.4,47C348.3,79.2,307.5,88,266,93.1c-56.6,6.9-112.7,4.7-168.2-9.3C67,76.1,36.1,69.3,5.2,62 c-1.4-0.3-2.9-0.6-5.1-1.1c0,2.3,0,4.2,0,6.1C0,187,0,307,0,426.9c-0.1,90.3-0.2,180.6-0.3,270.9c0,2.1-0.3,4.3-0.5,6.4 c0,51.2,0,160.3,0,211.5H1920V15.4z"></path> </defs> <clipPath id="SVGID_6_"> <use xlink:href="#SVGID_5_" style="overflow:visible;"></use> </clipPath> <g class="st4"> <path class="st5" d="M214.7,69.5c-0.2,0.2-0.4,0.4-0.6,0.5c-29.4,21.6-58.9,43.1-88.3,64.7c-41.6,30.4-83.1,60.9-124.7,91.3 c-0.2,0.2-0.5,0.3-0.7,0.5c-0.6-0.4-1.2-0.9-1.8-1.3c0.2-0.2,0.4-0.4,0.6-0.5c19.4-14.2,38.7-28.4,58.1-42.5 c51.1-37.4,102.1-74.8,153.2-112.2c0.2-0.2,0.4-0.4,0.6-0.5C212.3,69.5,213.5,69.5,214.7,69.5z"></path> <path class="st5" d="M173.6,69.5c-0.6,0.4-1.1,0.9-1.7,1.3C115,112.6,58,154.3,1,196.1c-0.2,0.2-0.4,0.3-0.7,0.5 c-0.6-0.4-1.2-0.9-1.8-1.3c0.2-0.2,0.4-0.4,0.6-0.5c18.4-13.5,36.8-27,55.3-40.5c38.3-28.1,76.6-56.1,114.9-84.2 c0.2-0.1,0.4-0.3,0.5-0.5C171.1,69.5,172.4,69.5,173.6,69.5z"></path> <path class="st5" d="M132.4,69.5c-0.2,0.2-0.4,0.4-0.6,0.6c-28.1,20.6-56.2,41.2-84.3,61.7C32,143.2,16.5,154.5,1,165.9 c-0.2,0.2-0.5,0.3-0.7,0.5c-0.6-0.4-1.2-0.9-1.8-1.3c0.3-0.2,0.4-0.3,0.6-0.5c42.9-31.4,85.8-62.9,128.7-94.3 c0.3-0.2,0.6-0.5,0.9-0.8C129.9,69.5,131.2,69.5,132.4,69.5z"></path> <path class="st5" d="M91.3,69.5c-0.2,0.2-0.4,0.4-0.6,0.5C60.8,92,30.9,113.9,0.9,135.8c-0.2,0.1-0.4,0.3-0.6,0.4 c-0.6-0.4-1.2-0.9-1.8-1.3c0.3-0.2,0.4-0.3,0.6-0.5C28.3,113,57.6,91.6,86.8,70.2c0.3-0.2,0.6-0.4,0.8-0.7 C88.9,69.5,90.1,69.5,91.3,69.5z"></path> <path class="st5" d="M50.1,69.5c-0.2,0.2-0.3,0.4-0.5,0.5C37.3,79,25.1,88,12.8,97c-4,2.9-7.9,5.8-11.9,8.7 c-0.2,0.2-0.4,0.3-0.7,0.5c-0.6-0.4-1.2-0.9-1.8-1.3c0.3-0.2,0.5-0.4,0.7-0.5c15.6-11.4,31.1-22.8,46.7-34.2 c0.2-0.1,0.4-0.3,0.5-0.5C47.6,69.5,48.9,69.5,50.1,69.5z"></path> <path class="st5" d="M235.7,81.7c0.6,0.5,1.2,0.9,1.8,1.4C158.4,141,79.4,198.9,0.3,256.8c-0.6-0.4-1.2-0.9-1.9-1.4 C77.6,197.5,156.6,139.6,235.7,81.7z"></path> <path class="st5" d="M48.9,248.6c62.2-45.6,124.5-91.2,186.7-136.8c0.3,0.2,0.6,0.4,0.9,0.6c0.3,0.2,0.6,0.4,0.9,0.7 c-0.3,0.2-0.5,0.4-0.7,0.6c-4.1,3-8.2,6-12.3,9C167.7,164.3,111,205.9,54.2,247.5c-0.7,0.5-1.4,0.9-2.3,0.9c-1,0.1-2,0.3-2.9,0.4 C49,248.8,48.9,248.7,48.9,248.6z"></path> <path class="st5" d="M235.6,142c0.6,0.5,1.2,0.9,1.8,1.3c-0.3,0.2-0.5,0.4-0.7,0.5c-23.9,17.5-47.8,35.1-71.8,52.6 c-22.9,16.8-45.8,33.6-68.7,50.4c-0.1,0.1-0.2,0.1-0.2,0.2c-0.5,0.5-1.1,0.7-1.9,0.5c-0.6-0.1-1.3-0.1-1.9-0.2 c0-0.1-0.1-0.1-0.1-0.1c0,0,0-0.1,0-0.1c0.1-0.1,0.1-0.1,0.2-0.2C140.1,212,187.9,177,235.6,142z"></path> <path class="st5" d="M235.7,172.2c0.6,0.4,1.1,0.8,1.8,1.3c-0.3,0.2-0.5,0.4-0.7,0.6c-5.3,3.9-10.5,7.7-15.8,11.6 c-30.8,22.5-61.5,45.1-92.3,67.6c-0.1,0.1-0.3,0.2-0.4,0.3c-0.4,0.3-0.7,0.4-1.2,0.2c-0.4-0.2-0.9-0.2-1.3-0.4 c-0.2-0.1-0.3-0.1-0.5-0.2C125.6,252.7,234.4,172.9,235.7,172.2z"></path> <path class="st5" d="M152.5,263.1c27.8-20.3,55.4-40.6,83.1-60.9c0.6,0.4,1.2,0.8,1.8,1.3c-0.3,0.2-0.5,0.4-0.7,0.6 c-5.9,4.4-11.9,8.7-17.8,13.1c-21.1,15.4-42.1,30.9-63.2,46.3c-1.1,0.8-0.7,0.8-2,0.2C153.4,263.5,153,263.4,152.5,263.1z"></path> </g> <g class="st4"> <path class="st5" d="M1827.3,1001.7c-0.2-0.2-0.4-0.4-0.5-0.6c-21.6-29.4-43.1-58.9-64.7-88.3c-30.4-41.6-60.9-83.1-91.3-124.7 c-0.2-0.2-0.3-0.5-0.5-0.7c0.4-0.6,0.9-1.2,1.3-1.8c0.2,0.2,0.4,0.4,0.5,0.6c14.2,19.4,28.4,38.7,42.5,58.1 c37.4,51.1,74.8,102.1,112.2,153.2c0.2,0.2,0.4,0.4,0.5,0.6C1827.3,999.2,1827.3,1000.5,1827.3,1001.7z"></path> <path class="st5" d="M1827.3,960.6c-0.4-0.6-0.9-1.1-1.3-1.7c-41.7-57-83.5-114-125.2-170.9c-0.2-0.2-0.3-0.4-0.5-0.7 c0.4-0.6,0.9-1.2,1.3-1.8c0.2,0.2,0.4,0.4,0.5,0.6c13.5,18.4,27,36.8,40.5,55.3c28.1,38.3,56.1,76.6,84.2,114.9 c0.1,0.2,0.3,0.4,0.5,0.5C1827.3,958.1,1827.3,959.3,1827.3,960.6z"></path> <path class="st5" d="M1827.3,919.4c-0.2-0.2-0.4-0.4-0.6-0.6c-20.6-28.1-41.2-56.2-61.7-84.3c-11.4-15.5-22.7-31-34.1-46.5 c-0.2-0.2-0.3-0.5-0.5-0.7c0.4-0.6,0.9-1.2,1.3-1.8c0.2,0.3,0.3,0.4,0.5,0.6c31.4,42.9,62.9,85.8,94.3,128.7 c0.2,0.3,0.5,0.6,0.8,0.9C1827.3,916.9,1827.3,918.2,1827.3,919.4z"></path> <path class="st5" d="M1827.3,878.3c-0.2-0.2-0.4-0.4-0.5-0.6c-21.9-29.9-43.9-59.9-65.8-89.8c-0.1-0.2-0.3-0.4-0.4-0.6 c0.4-0.6,0.9-1.2,1.3-1.8c0.2,0.3,0.3,0.4,0.5,0.6c21.4,29.2,42.8,58.5,64.2,87.7c0.2,0.3,0.4,0.6,0.7,0.8 C1827.3,875.8,1827.3,877.1,1827.3,878.3z"></path> <path class="st5" d="M1827.3,837.1c-0.2-0.2-0.4-0.3-0.5-0.5c-9-12.2-17.9-24.5-26.9-36.7c-2.9-4-5.8-7.9-8.7-11.9 c-0.2-0.2-0.3-0.4-0.5-0.7c0.4-0.6,0.9-1.2,1.3-1.8c0.2,0.3,0.4,0.5,0.5,0.7c11.4,15.6,22.8,31.1,34.2,46.7 c0.1,0.2,0.3,0.4,0.5,0.5C1827.3,834.6,1827.3,835.9,1827.3,837.1z"></path> <path class="st5" d="M1815.1,1022.6c-0.5,0.6-0.9,1.2-1.4,1.8c-58-79.1-115.8-158.1-173.7-237.2c0.4-0.6,0.9-1.2,1.4-1.9 C1699.3,864.5,1757.2,943.6,1815.1,1022.6z"></path> <path class="st5" d="M1648.2,835.9c45.6,62.2,91.2,124.5,136.8,186.7c-0.2,0.3-0.4,0.6-0.6,0.9c-0.2,0.3-0.4,0.6-0.7,0.9 c-0.2-0.3-0.4-0.5-0.6-0.7c-3-4.1-6-8.2-9-12.3c-41.6-56.8-83.2-113.5-124.7-170.3c-0.5-0.7-0.9-1.4-0.9-2.3c-0.1-1-0.3-2-0.4-2.9 C1648.1,835.9,1648.1,835.9,1648.2,835.9z"></path> <path class="st5" d="M1754.9,1022.6c-0.5,0.6-0.9,1.2-1.3,1.8c-0.2-0.3-0.4-0.5-0.5-0.7c-17.5-23.9-35.1-47.8-52.6-71.8 c-16.8-22.9-33.6-45.8-50.4-68.7c-0.1-0.1-0.1-0.2-0.2-0.2c-0.5-0.5-0.7-1.1-0.5-1.9c0.1-0.6,0.1-1.3,0.2-1.9 c0.1,0,0.1-0.1,0.1-0.1c0,0,0.1,0,0.1,0c0.1,0.1,0.1,0.1,0.2,0.2C1684.9,927.1,1719.8,974.8,1754.9,1022.6z"></path> <path class="st5" d="M1724.7,1022.7c-0.4,0.6-0.8,1.1-1.3,1.8c-0.2-0.3-0.4-0.5-0.6-0.7c-3.9-5.3-7.7-10.5-11.6-15.8 c-22.5-30.8-45.1-61.5-67.6-92.3c-0.1-0.1-0.2-0.3-0.3-0.4c-0.3-0.4-0.4-0.7-0.2-1.2c0.2-0.4,0.2-0.9,0.4-1.3 c0.1-0.2,0.1-0.3,0.2-0.5C1644.2,912.6,1724,1021.4,1724.7,1022.7z"></path> <path class="st5" d="M1633.7,939.5c20.3,27.8,40.6,55.4,60.9,83.1c-0.4,0.6-0.8,1.2-1.3,1.8c-0.2-0.3-0.4-0.5-0.6-0.7 c-4.4-5.9-8.7-11.9-13.1-17.8c-15.4-21.1-30.9-42.1-46.3-63.2c-0.8-1.1-0.8-0.7-0.2-2C1633.3,940.4,1633.5,940,1633.7,939.5z"></path> </g> </g> </svg> 