<?xml version="1.0" encoding="utf-8"?>
<!-- Generator: Adobe Illustrator 25.1.0, SVG Export Plug-In . SVG Version: 6.00 Build 0)  -->
<svg version="1.1" id="Layer_1" xmlns="http://www.w3.org/2000/svg" xmlns:xlink="http://www.w3.org/1999/xlink" x="0px" y="0px"
	 viewBox="0 0 28 19" style="enable-background:new 0 0 28 19;" xml:space="preserve">
<style type="text/css">
	.st0{fill:#F0F0F0;}
	.st1{fill:#D80027;}
	.st2{fill:#0052B4;}
	.st3{fill:#FFDA44;}
</style>
<g>
	<rect class="st0" width="28.6" height="19"/>
	<g>
		<rect y="2.4" class="st1" width="28.6" height="2.4"/>
		<rect y="7.1" class="st1" width="28.6" height="2.4"/>
		<rect y="11.9" class="st1" width="28.6" height="2.4"/>
		<rect y="16.7" class="st1" width="28.6" height="2.4"/>
	</g>
	<rect class="st2" width="14.3" height="10.3"/>
	<g>
		<path class="st3" d="M7.9,7.5c-1.3,0-2.4-1.1-2.4-2.4s1.1-2.4,2.4-2.4c0.4,0,0.8,0.1,1.1,0.3C8.5,2.5,7.7,2.2,7,2.2
			c-1.6,0-2.9,1.3-2.9,2.9S5.4,8,7,8c0.8,0,1.5-0.3,2-0.8C8.7,7.4,8.3,7.5,7.9,7.5z"/>
		<polygon class="st3" points="8.5,3.5 8.9,4.3 9.9,4.1 9.5,5 10.2,5.6 9.3,5.8 9.3,6.8 8.5,6.2 7.8,6.8 7.8,5.8 6.8,5.6 7.6,5 
			7.2,4.1 8.1,4.3 		"/>
	</g>
</g>
</svg>
