<?xml version="1.0" encoding="utf-8"?>
<!-- Generator: Adobe Illustrator 25.1.0, SVG Export Plug-In . SVG Version: 6.00 Build 0)  -->
<svg version="1.1" id="Layer_1" xmlns="http://www.w3.org/2000/svg" xmlns:xlink="http://www.w3.org/1999/xlink" x="0px" y="0px"
	 viewBox="0 0 28 19" style="enable-background:new 0 0 28 19;" xml:space="preserve">
<style type="text/css">
	.st0{fill:#F0F0F0;}
	.st1{fill:#496E2D;}
</style>
<g>
	<g>
		<polygon class="st0" points="21.4,4.7 22.4,5.8 23.7,5.2 23,6.4 24,7.5 22.6,7.2 21.9,8.5 21.7,7 20.3,6.8 21.6,6.2 		"/>
		<rect x="-0.5" y="0" class="st0" width="28.5" height="19"/>
	</g>
	<rect x="6.6" class="st1" width="21.4" height="19"/>
	<g>
		<path class="st0" d="M19.6,11.9c-1.7,1.2-4.1,0.9-5.4-0.9c-1.2-1.7-0.9-4.1,0.9-5.4c0.5-0.4,1.1-0.6,1.8-0.7
			c-1.2-0.2-2.4,0.1-3.5,0.8c-2.1,1.5-2.6,4.5-1.1,6.6c1.5,2.1,4.5,2.6,6.6,1.1c1-0.8,1.7-1.9,1.9-3C20.6,11,20.2,11.5,19.6,11.9z"
			/>
		<polygon class="st0" points="19.6,4.9 20.5,5.9 21.8,5.3 21.1,6.6 22.1,7.6 20.7,7.3 20,8.6 19.8,7.2 18.4,6.9 19.7,6.3 		"/>
	</g>
</g>
</svg>
