<?xml version="1.0" encoding="UTF-8"?> <!-- Generator: Adobe Illustrator 25.1.0, SVG Export Plug-In . SVG Version: 6.00 Build 0) --> <svg xmlns="http://www.w3.org/2000/svg" xmlns:xlink="http://www.w3.org/1999/xlink" version="1.1" id="Layer_1" x="0px" y="0px" viewBox="0 0 75 75" style="enable-background:new 0 0 75 75;" xml:space="preserve"> <style type="text/css"> .st0{fill:#40C4FF;} .st1{display:none;fill:#FF4081;} .st2{display:none;} .st3{display:inline;fill:#FFFFFF;} .st4{fill:#FFFFFF;} .st5{fill-rule:evenodd;clip-rule:evenodd;fill:#FFFFFF;} </style> <path class="st0" d="M58.1,6.5c0.6,0,1.2,0,1.7,0c0.1,0,0.2,0.1,0.3,0.1c1.6,0.1,3.1,0.7,4.4,1.6c2,1.3,3.4,3.1,4.6,5.2 c3,5.3,4.2,11.1,5,17.1c0.3,2.2,0.5,4.4,0.7,6.6c0.1,1.3,0.2,2.7,0.1,4c-0.3,2.9-0.9,5.7-1.7,8.5c-2.7,8.9-7.9,15.9-16.2,20.5 c-5.4,3-11.3,4.5-17.5,4.8c-3.8,0.2-7.6,0.1-11.4-0.7c-7.2-1.5-13.3-5-18.1-10.6c-4.7-5.4-7.6-11.8-9.3-18.7 c-0.3-1.3-0.5-2.5-0.8-3.8c0-0.6,0-1.2,0-1.7c0.1-0.5,0.1-1,0.2-1.5c0.5-3.9,2.2-7.3,5.2-9.9c3-2.7,6.5-4.3,10.3-5.2 c1.8-0.4,3.7-0.6,5.6-0.9c3.4-0.5,6.8-1.4,10-2.6c8.2-2.9,15.8-7,23.1-11.6c0.5-0.3,1-0.5,1.5-0.6C56.6,6.8,57.4,6.7,58.1,6.5z"></path> <path class="st1" d="M40.3,75c-5-0.1-9.5-1-13.8-2.4c-5-1.7-9.7-4-13.8-7.4c-6.4-5.3-10.4-12-12-20.2c-0.7-3.6-0.7-7.2-0.6-10.9 c0.1-3.7,1.3-7.1,2.6-10.5c2-5.5,4.5-10.9,7.9-15.7c1.7-2.4,3.7-4.6,6.3-6.2c1.6-1,3.4-1.7,5.3-1.7c3,0,5.7,0.9,7.8,3.2 c7.2,7.9,15.1,15,24.5,20.3c1.8,1,3.6,1.8,5.5,2.5c5.4,2.2,10,5.5,12.9,10.7c1,1.8,1.6,3.9,1.8,6c0.4,3.8-0.6,7.3-2.5,10.6 c-3.6,6.4-8.1,12-14.2,16.1c-4.2,2.8-8.8,4.6-13.8,5.3C42.8,74.9,41.3,74.9,40.3,75z"></path> <g class="st2"> <rect x="47.2" y="28.3" class="st3" width="0.2" height="0.1"></rect> <path class="st3" d="M73.8,10c0,12,0,23.9,0,35.8c0,0,0,0.1,0,0.1c-0.2,1.6-1.5,3-3.2,3.3c-0.2,0-0.4,0.1-0.6,0.1 c-15.3,0-30.6,0-45.9,0c0,0-0.1,0-0.1,0c-1.7-0.2-3.1-1.3-3.5-2.8c-0.1-0.2-0.1-0.5-0.1-0.7c0-11.9,0-23.9,0-35.8c0,0,0-0.1,0-0.1 c0.2-1.6,1.2-2.7,2.9-3.3c0.4-0.1,0.8-0.2,1.2-0.2c15.1,0,30.1,0,45.2,0c0.1,0,0.2,0,0.3,0C71.6,6.5,73,7.5,73.6,9 C73.7,9.3,73.7,9.6,73.8,10z M70.4,18.7c-15.6,0-31.2,0-46.8,0c0,0.1,0,0.1,0,0.2c0,8.8,0,17.7,0,26.5c0,0.5,0.4,0.9,1,0.9 c15,0,29.9,0,44.9,0c0.5,0,1-0.3,1-0.9c0-8.8,0-17.6,0-26.5C70.4,18.9,70.4,18.8,70.4,18.7z M70.4,15.6c0-0.1,0-0.1,0-0.2 c0-1.7,0-3.4,0-5c0-0.6-0.5-0.9-0.9-0.9c-15,0-30,0-44.9,0c-0.6,0-0.9,0.3-0.9,0.9c0,1.7,0,3.4,0,5c0,0.1,0,0.1,0,0.2 C39.3,15.6,54.8,15.6,70.4,15.6z"></path> <path class="st3" d="M43.7,41.7c-1.2,0-2-1.1-1.5-2.1c2.2-5.1,4.4-10.2,6.7-15.3c0.3-0.7,1-1.1,1.7-1c0.8,0.1,1.4,0.6,1.5,1.3 c0.1,0.3,0,0.6-0.1,0.9c-1,2.4-2.1,4.8-3.1,7.2c-1.1,2.7-2.3,5.3-3.5,8C45,41.3,44.4,41.7,43.7,41.7z"></path> <path class="st3" d="M29.7,32.5c0-1.1,0.4-2,1.2-2.7c1.6-1.5,3.3-3,5-4.6c0.5-0.4,1.1-0.6,1.7-0.4c0.6,0.2,1,0.6,1.1,1.2 c0.1,0.5-0.1,1-0.5,1.4c-1,1-2.1,1.9-3.1,2.9c-0.6,0.5-1.1,1-1.7,1.6c-0.4,0.4-0.4,0.8,0,1.2c1.6,1.5,3.2,3,4.8,4.4 c0.7,0.6,0.7,1.5,0.1,2.1c-0.6,0.6-1.7,0.7-2.4,0c-0.8-0.7-1.5-1.4-2.2-2c-0.9-0.8-1.8-1.7-2.7-2.5C30.1,34.4,29.7,33.5,29.7,32.5z "></path> <path class="st3" d="M64.4,32.5c0,1-0.4,1.9-1.2,2.6c-1.7,1.5-3.3,3.1-5,4.6c-0.5,0.5-1.2,0.6-1.9,0.3c-0.6-0.3-1-0.8-1-1.5 c0-0.4,0.2-0.8,0.5-1.1c1.6-1.4,3.1-2.9,4.7-4.3c0,0,0.1-0.1,0.2-0.1c0.3-0.3,0.3-0.8,0-1.1c-0.5-0.4-1-0.9-1.4-1.3 c-1.1-1-2.3-2.1-3.4-3.1c-0.7-0.6-0.7-1.6-0.1-2.2c0.7-0.6,1.7-0.7,2.4,0c1.2,1.1,2.4,2.2,3.6,3.3c0.5,0.4,0.9,0.8,1.4,1.3 C64,30.5,64.4,31.5,64.4,32.5z"></path> <path class="st3" d="M28.7,12.5c0,0.8-0.7,1.5-1.6,1.5c-0.9,0-1.7-0.7-1.7-1.5c0-0.9,0.7-1.5,1.7-1.5C28,11,28.7,11.7,28.7,12.5z"></path> <path class="st3" d="M32,14.1c-0.9,0-1.7-0.7-1.7-1.6c0-0.8,0.8-1.5,1.7-1.5c0.9,0,1.7,0.7,1.7,1.5C33.7,13.4,32.9,14.1,32,14.1z"></path> </g> <g> <path class="st4" d="M26.8,27.1c-0.5-0.6-0.5-1.5,0-2.1l3.8-4.4c0.6-0.7,1.6-0.7,2.2-0.1s0.7,1.6,0.2,2.2L30.1,26l2.9,3.3 c0.6,0.7,0.5,1.7-0.2,2.2s-1.7,0.5-2.2-0.1L26.8,27.1z"></path> <path class="st4" d="M44.4,31.4l3.8-4.4c0.5-0.6,0.5-1.5,0-2.1l-3.8-4.4c-0.6-0.7-1.6-0.7-2.2-0.1C41.5,21,41.4,22,42,22.7l2.9,3.3 L42,29.3c-0.6,0.7-0.5,1.7,0.1,2.2C42.8,32.2,43.8,32.1,44.4,31.4z"></path> <path class="st4" d="M40.6,18.3c0.8,0.3,1.2,1.2,0.9,2l-5.2,12.7c-0.3,0.8-1.3,1.2-2.1,0.9s-1.2-1.2-0.9-2l5.2-12.8 C38.9,18.4,39.8,18,40.6,18.3z"></path> <path class="st4" d="M34.3,7c-0.9,0-1.6,0.7-1.6,1.6s0.7,1.6,1.6,1.6h6.4c0.9,0,1.6-0.7,1.6-1.6S41.6,7,40.7,7H34.3z"></path> <path class="st5" d="M55,8.6c0-4.4-3.6-8-8-8H28c-4.4,0-8,3.6-8,8v35.1c0,4.4,3.6,8,8,8H47c4.4,0,8-3.6,8-8L55,8.6L55,8.6z M47,3.9 c2.6,0,4.8,2.1,4.8,4.8v35.1c0,2.6-2.1,4.8-4.8,4.8H28c-2.6,0-4.8-2.1-4.8-4.8V8.6c0-2.6,2.1-4.8,4.8-4.8C28,3.9,47,3.9,47,3.9z"></path> </g> </svg> 