<?xml version="1.0" encoding="UTF-8"?> <!-- Generator: Adobe Illustrator 25.1.0, SVG Export Plug-In . SVG Version: 6.00 Build 0) --> <svg xmlns="http://www.w3.org/2000/svg" xmlns:xlink="http://www.w3.org/1999/xlink" version="1.1" id="Layer_1" x="0px" y="0px" viewBox="0 0 75 75" style="enable-background:new 0 0 75 75;" xml:space="preserve"> <style type="text/css"> .st0{fill:#FF4081;} .st1{fill:#FFFFFF;} </style> <path class="st0" d="M40.3,75c-5-0.1-9.5-1-13.8-2.4c-5-1.7-9.7-4-13.8-7.4c-6.4-5.3-10.4-12-12-20.2c-0.7-3.6-0.7-7.2-0.6-10.9 c0.1-3.7,1.3-7.1,2.6-10.5c2-5.5,4.5-10.9,7.9-15.7c1.7-2.4,3.7-4.6,6.3-6.2c1.6-1,3.4-1.7,5.3-1.7c3,0,5.7,0.9,7.8,3.2 c7.2,7.9,15.1,15,24.5,20.3c1.8,1,3.6,1.8,5.5,2.5c5.4,2.2,10,5.5,12.9,10.7c1,1.8,1.6,3.9,1.8,6c0.4,3.8-0.6,7.3-2.5,10.6 c-3.6,6.4-8.1,12-14.2,16.1c-4.2,2.8-8.8,4.6-13.8,5.3C42.8,74.9,41.3,74.9,40.3,75z"></path> <g> <rect x="47.2" y="28.3" class="st1" width="0.2" height="0.1"></rect> <path class="st1" d="M73.8,10c0,12,0,23.9,0,35.8c0,0,0,0.1,0,0.1c-0.2,1.6-1.5,3-3.2,3.3c-0.2,0-0.4,0.1-0.6,0.1 c-15.3,0-30.6,0-45.9,0c0,0-0.1,0-0.1,0c-1.7-0.2-3.1-1.3-3.5-2.8c-0.1-0.2-0.1-0.5-0.1-0.7c0-11.9,0-23.9,0-35.8c0,0,0-0.1,0-0.1 c0.2-1.6,1.2-2.7,2.9-3.3c0.4-0.1,0.8-0.2,1.2-0.2c15.1,0,30.1,0,45.2,0c0.1,0,0.2,0,0.3,0C71.6,6.5,73,7.5,73.6,9 C73.7,9.3,73.7,9.6,73.8,10z M70.4,18.7c-15.6,0-31.2,0-46.8,0c0,0.1,0,0.1,0,0.2c0,8.8,0,17.7,0,26.5c0,0.5,0.4,0.9,1,0.9 c15,0,29.9,0,44.9,0c0.5,0,1-0.3,1-0.9c0-8.8,0-17.6,0-26.5C70.4,18.9,70.4,18.8,70.4,18.7z M70.4,15.6c0-0.1,0-0.1,0-0.2 c0-1.7,0-3.4,0-5c0-0.6-0.5-0.9-0.9-0.9c-15,0-30,0-44.9,0c-0.6,0-0.9,0.3-0.9,0.9c0,1.7,0,3.4,0,5c0,0.1,0,0.1,0,0.2 C39.3,15.6,54.8,15.6,70.4,15.6z"></path> <path class="st1" d="M43.7,41.7c-1.2,0-2-1.1-1.5-2.1c2.2-5.1,4.4-10.2,6.7-15.3c0.3-0.7,1-1.1,1.7-1c0.8,0.1,1.4,0.6,1.5,1.3 c0.1,0.3,0,0.6-0.1,0.9c-1,2.4-2.1,4.8-3.1,7.2c-1.1,2.7-2.3,5.3-3.5,8C45,41.3,44.4,41.7,43.7,41.7z"></path> <path class="st1" d="M29.7,32.5c0-1.1,0.4-2,1.2-2.7c1.6-1.5,3.3-3,5-4.6c0.5-0.4,1.1-0.6,1.7-0.4c0.6,0.2,1,0.6,1.1,1.2 c0.1,0.5-0.1,1-0.5,1.4c-1,1-2.1,1.9-3.1,2.9c-0.6,0.5-1.1,1-1.7,1.6c-0.4,0.4-0.4,0.8,0,1.2c1.6,1.5,3.2,3,4.8,4.4 c0.7,0.6,0.7,1.5,0.1,2.1c-0.6,0.6-1.7,0.7-2.4,0c-0.8-0.7-1.5-1.4-2.2-2c-0.9-0.8-1.8-1.7-2.7-2.5C30.1,34.4,29.7,33.5,29.7,32.5z "></path> <path class="st1" d="M64.4,32.5c0,1-0.4,1.9-1.2,2.6c-1.7,1.5-3.3,3.1-5,4.6c-0.5,0.5-1.2,0.6-1.9,0.3c-0.6-0.3-1-0.8-1-1.5 c0-0.4,0.2-0.8,0.5-1.1c1.6-1.4,3.1-2.9,4.7-4.3c0,0,0.1-0.1,0.2-0.1c0.3-0.3,0.3-0.8,0-1.1c-0.5-0.4-1-0.9-1.4-1.3 c-1.1-1-2.3-2.1-3.4-3.1c-0.7-0.6-0.7-1.6-0.1-2.2c0.7-0.6,1.7-0.7,2.4,0c1.2,1.1,2.4,2.2,3.6,3.3c0.5,0.4,0.9,0.8,1.4,1.3 C64,30.5,64.4,31.5,64.4,32.5z"></path> <path class="st1" d="M28.7,12.5c0,0.8-0.7,1.5-1.6,1.5c-0.9,0-1.7-0.7-1.7-1.5c0-0.9,0.7-1.5,1.7-1.5C28,11,28.7,11.7,28.7,12.5z"></path> <path class="st1" d="M32,14.1c-0.9,0-1.7-0.7-1.7-1.6c0-0.8,0.8-1.5,1.7-1.5c0.9,0,1.7,0.7,1.7,1.5C33.7,13.4,32.9,14.1,32,14.1z"></path> </g> </svg> 