<?xml version="1.0" encoding="utf-8"?>
<!-- Generator: Adobe Illustrator 25.1.0, SVG Export Plug-In . SVG Version: 6.00 Build 0)  -->
<svg version="1.1" id="Layer_1" xmlns="http://www.w3.org/2000/svg" xmlns:xlink="http://www.w3.org/1999/xlink" x="0px" y="0px"
	 viewBox="0 0 1920 700" style="enable-background:new 0 0 1920 700;" xml:space="preserve">
<style type="text/css">
	.st0{fill:#EBF5FF;}
	.st1{fill:url(#SVGID_1_);}
	.st2{fill:#EEEEEE;}
</style>
<path class="st0" d="M330.2,466.8c-12.7-29.5-30.9-55.7-51.2-80.4c-15.5-18.8-30.9-37.7-51.8-51.4c-37.4-24.6-77.5-40.3-122.8-40.5
	c-22-0.2-43.3,3.6-64,10.6c-14.3,4.8-27.7,10.8-40.3,18v374.8c34.2,1.6,63.7-11.9,90.9-32.1c13.3-9.9,26.4-20.3,40.6-28.7
	c45.3-26.8,94.7-43.5,145.3-56.9c9.4-2.5,19.7-3.1,28.3-7.3c22.7-11.1,35.8-29.6,36.6-55.5C342.2,499.5,337.1,482.9,330.2,466.8z"/>
<linearGradient id="SVGID_1_" gradientUnits="userSpaceOnUse" x1="1691.4237" y1="699" x2="1691.4237" y2="11.1561">
	<stop  offset="0" style="stop-color:#FFFFFF"/>
	<stop  offset="0.1705" style="stop-color:#F7FBFF"/>
	<stop  offset="0.5178" style="stop-color:#EEF6FF"/>
	<stop  offset="1" style="stop-color:#EBF5FF"/>
</linearGradient>
<path class="st1" d="M1920,11.4c0,209.6,0,419.1,0,628.7c-8.2,1.3-16.4,2.6-24.5,4c-39.4,7-77.8,17.4-114.8,32.7
	c-47.2,19.5-96.3,26.7-147.1,19.3c-43.8-6.4-80.9-25.7-110.2-59.2c-12.5-14.3-23.9-29.6-30.5-47.6c-16.5-45.4-25.2-92.6-28.8-140.7
	c-2.1-28.2-1.5-56.4,1.7-84.6c3.5-31.1,10.1-61.4,20.8-90.8c28-76.9,78.3-135.6,146.1-180.1c27.4-18,56.7-32.3,86.6-45.5
	c49.2-21.7,100.7-33.9,154.4-36.2C1889.1,10.8,1904.6,11.4,1920,11.4z"/>
<g>
	<path class="st2" d="M1580.2,550c-0.3,1.1-0.8,2.2-1.7,2.9c-1.4,1.1-3.2,1.2-4.7,0.2c-1.4-0.9-2.3-2.7-2-4.2
		c0.3-1.9,1.6-3.3,3.3-3.6c0.1,0,0.3-0.1,0.4-0.1c0.3,0,0.7,0,1,0c0.6,0.3,1.3,0.5,1.9,0.9c1.1,0.7,1.5,1.8,1.8,3
		C1580.2,549.4,1580.2,549.7,1580.2,550z"/>
	<path class="st2" d="M1580.2,617.2c-0.2,0.5-0.3,1-0.6,1.5c-0.9,1.8-2.9,2.7-4.9,2.1c-1.9-0.5-3.2-2.4-3.1-4.4c0.1-2,1.6-3.6,3.5-4
		c2.3-0.4,4.4,1,4.9,3.3c0,0.2,0.1,0.3,0.1,0.5C1580.2,616.5,1580.2,616.9,1580.2,617.2z"/>
	<path class="st2" d="M1580.2,583.5c-0.3,0.9-0.6,1.9-1.3,2.6c-1.4,1.3-3.4,1.6-5,0.7c-1.7-1-2.5-3-2-4.9c0.5-1.8,2.1-3.1,4-3.2
		c2.1,0,3.8,1.3,4.3,3.4c0,0.1,0.1,0.2,0.1,0.3C1580.2,582.9,1580.2,583.2,1580.2,583.5z"/>
	<g>
		<path class="st2" d="M1477.2,545.1c1.1,0.3,2,0.7,2.8,1.6c1.2,1.5,1.3,3.6,0.3,5.2c-1,1.5-2.9,2.2-4.7,1.8c-1.7-0.5-3-2.1-3.1-4
			c-0.1-1.9,1.4-3.9,3.3-4.4c0.2,0,0.3-0.1,0.5-0.1C1476.5,545.1,1476.9,545.1,1477.2,545.1z"/>
		<path class="st2" d="M1311.9,545.1c0.3,0.1,0.6,0.2,0.9,0.3c2.1,0.7,3.3,3,2.7,5.2c-0.5,2-2.6,3.4-4.5,3.2
			c-2.3-0.3-3.9-2.2-3.9-4.4c0.1-2,1.5-3.7,3.4-4.1c0.1,0,0.2-0.1,0.3-0.1C1311.2,545.1,1311.6,545.1,1311.9,545.1z"/>
		<path class="st2" d="M1411.1,545.1c0.2,0.1,0.5,0.2,0.7,0.2c2.1,0.7,3.3,2.7,2.9,5c-0.3,1.9-2.3,3.5-4.3,3.4
			c-2.1-0.1-3.8-1.7-4.1-3.8c-0.3-2.1,1.1-4.2,3.2-4.7c0.2,0,0.3-0.1,0.5-0.2C1410.4,545.1,1410.7,545.1,1411.1,545.1z"/>
		<path class="st2" d="M1378,545.1c1.2,0.3,2.3,0.8,3.1,2c1,1.6,0.9,3.6-0.2,5c-1.1,1.4-3,2-4.6,1.4c-1.7-0.6-2.9-2.2-2.9-4
			c0-2,1.4-3.8,3.4-4.3c0.1,0,0.2-0.1,0.3-0.1C1377.3,545.1,1377.7,545.1,1378,545.1z"/>
		<path class="st2" d="M1543.5,545.1c0.3,0.1,0.7,0.2,1,0.3c1.8,0.8,2.9,2.8,2.6,4.7c-0.4,2-2,3.5-4,3.6c-1.9,0.1-3.7-1.2-4.3-3.1
			c-0.7-2.4,0.8-4.9,3.2-5.4c0.1,0,0.2-0.1,0.3-0.1C1542.7,545.1,1543.1,545.1,1543.5,545.1z"/>
		<path class="st2" d="M1444.2,545.1c0.3,0.1,0.7,0.2,1,0.3c1.8,0.8,2.9,2.8,2.6,4.7c-0.3,2-2.1,3.5-4.1,3.6c-2,0.1-3.8-1.3-4.3-3.3
			c-0.6-2.3,0.9-4.7,3.2-5.2c0.1,0,0.3-0.1,0.4-0.1C1443.5,545.1,1443.9,545.1,1444.2,545.1z"/>
		<path class="st2" d="M1345,545.1c0.3,0.1,0.7,0.2,1,0.3c1.9,0.8,3,2.9,2.6,4.9c-0.4,1.9-2.1,3.4-4.1,3.4c-2,0-3.8-1.4-4.2-3.4
			c-0.5-2.2,1-4.5,3.2-5.1c0.1,0,0.3-0.1,0.4-0.1C1344.3,545.1,1344.7,545.1,1345,545.1z"/>
		<path class="st2" d="M1510.3,545.1c0.4,0.1,0.8,0.2,1.1,0.4c1.9,0.8,2.9,2.9,2.5,4.9c-0.4,1.9-2.2,3.4-4.2,3.4
			c-2,0-3.7-1.5-4.1-3.6c-0.4-2.2,1-4.4,3.2-5c0.1,0,0.3-0.1,0.4-0.1C1509.6,545.1,1510,545.1,1510.3,545.1z"/>
		<path class="st2" d="M1311.4,620.9c-2.3,0-4.3-1.9-4.3-4.3c0-2.4,2-4.4,4.3-4.4c2.3,0,4.2,2,4.2,4.3
			C1315.7,619,1313.7,620.9,1311.4,620.9z"/>
		<path class="st2" d="M1476.7,620.9c-2.3,0-4.2-2-4.3-4.3c0-2.3,2-4.3,4.2-4.3c2.3,0,4.3,2,4.3,4.4C1481,619,1479,621,1476.7,620.9
			z"/>
		<path class="st2" d="M1381.8,616.6c0,2.4-1.9,4.3-4.2,4.3c-2.3,0-4.2-1.9-4.3-4.3c0-2.4,2-4.4,4.3-4.4
			C1379.9,612.3,1381.8,614.3,1381.8,616.6z"/>
		<path class="st2" d="M1406.4,616.6c0-2.4,1.9-4.3,4.2-4.3c2.3,0,4.2,1.9,4.3,4.3c0,2.4-1.9,4.4-4.3,4.3
			C1408.2,620.9,1406.4,619,1406.4,616.6z"/>
		<path class="st2" d="M1410.6,587.3c-2.4,0-4.2-1.9-4.2-4.3c0-2.4,1.9-4.3,4.3-4.3c2.3,0,4.2,2,4.2,4.3
			C1414.8,585.5,1412.9,587.3,1410.6,587.3z"/>
		<path class="st2" d="M1377.6,587.3c-2.3,0-4.2-1.9-4.3-4.2c0-2.3,1.9-4.3,4.2-4.3c2.4,0,4.3,1.9,4.3,4.3
			C1381.8,585.4,1379.9,587.3,1377.6,587.3z"/>
		<path class="st2" d="M1547.1,616.6c0,2.4-1.9,4.3-4.2,4.3c-2.4,0-4.3-2-4.3-4.3c0-2.4,1.9-4.3,4.2-4.3
			C1545.2,612.3,1547.1,614.2,1547.1,616.6z"/>
		<path class="st2" d="M1514,583.1c0,2.4-1.9,4.3-4.2,4.3c-2.4,0-4.2-1.9-4.2-4.3c0-2.4,1.9-4.3,4.3-4.3
			C1512.2,578.8,1514,580.7,1514,583.1z"/>
		<path class="st2" d="M1542.9,578.8c2.4,0,4.2,1.9,4.2,4.3c0,2.4-1.9,4.3-4.2,4.3c-2.4,0-4.3-1.9-4.3-4.3
			C1538.6,580.6,1540.5,578.7,1542.9,578.8z"/>
		<path class="st2" d="M1348.7,616.6c0,2.4-1.9,4.3-4.2,4.3c-2.4,0-4.2-1.9-4.2-4.4c0-2.4,2-4.3,4.3-4.3
			C1346.8,612.3,1348.7,614.3,1348.7,616.6z"/>
		<path class="st2" d="M1514,616.7c0,2.4-2,4.3-4.3,4.3c-2.4-0.1-4.2-2-4.1-4.6c0-2.2,2.1-4.2,4.3-4.1
			C1512.2,612.4,1514,614.3,1514,616.7z"/>
		<path class="st2" d="M1311.4,578.8c2.3,0,4.2,1.9,4.3,4.3c0,2.4-1.9,4.3-4.3,4.3c-2.3,0-4.2-1.9-4.2-4.3
			C1307.2,580.7,1309.1,578.8,1311.4,578.8z"/>
		<path class="st2" d="M1348.7,583c0,2.4-1.8,4.3-4.2,4.3c-2.4,0-4.2-1.9-4.2-4.3c0-2.4,1.8-4.3,4.2-4.3
			C1346.8,578.7,1348.7,580.6,1348.7,583z"/>
		<path class="st2" d="M1439.4,583c0-2.4,1.9-4.3,4.3-4.2c2.4,0,4.2,1.9,4.1,4.4c0,2.3-1.9,4.2-4.3,4.1
			C1441.2,587.3,1439.4,585.4,1439.4,583z"/>
		<path class="st2" d="M1476.7,578.8c2.3,0,4.3,1.9,4.3,4.3c0,2.4-1.9,4.3-4.3,4.3c-2.3,0-4.2-2-4.2-4.3
			C1472.5,580.7,1474.4,578.8,1476.7,578.8z"/>
		<path class="st2" d="M1439.4,616.6c0-2.4,1.9-4.3,4.2-4.3c2.3,0,4.2,1.9,4.2,4.3c0,2.4-1.9,4.4-4.3,4.3
			C1441.3,620.9,1439.4,619,1439.4,616.6z"/>
	</g>
</g>
</svg>
