<?xml version="1.0" encoding="utf-8"?>
<!-- Generator: Adobe Illustrator 23.0.3, SVG Export Plug-In . SVG Version: 6.00 Build 0)  -->
<svg version="1.1" id="Layer_1" xmlns="http://www.w3.org/2000/svg" xmlns:xlink="http://www.w3.org/1999/xlink" x="0px" y="0px"
	 viewBox="0 0 112 112" style="enable-background:new 0 0 112 112;" xml:space="preserve">
<style type="text/css">
	.st0{fill:#FFFFFF;}
	.st1{display:none;}
	.st2{display:inline;}
</style>
<g>
	<path class="st0" d="M56.5,0.1c0.6,0.1,1.2,0.2,1.8,0.3c6.4,1.6,9,8.9,5.1,14.3c-0.3,0.4-0.6,0.8-1,1.2c0.3,0.2,0.6,0.3,0.8,0.5
		c3.6,2.1,6.2,5.1,7.3,9.2c0.3,1.1,0.4,2.3,0.5,3.5c0.1,1.4-0.6,2.1-1.9,2.2c-0.2,0-0.5,0-0.7,0c-8.2,0-16.5,0-24.7,0
		c-0.3,0-0.6,0-0.9,0c-1.1-0.1-1.7-0.7-1.7-1.9c0-3,0.8-5.8,2.5-8.3c1.4-2.1,3.3-3.6,5.4-4.8c0.2-0.1,0.5-0.3,0.7-0.4
		c-0.2-0.3-0.4-0.5-0.5-0.8c-1-1.6-1.9-3.2-2.1-5.1c-0.4-2.5,0.3-4.7,1.9-6.6c1.7-1.9,3.8-3.1,6.4-3.3c0.1,0,0.2,0,0.3-0.1
		C55.9,0.1,56.2,0.1,56.5,0.1z M67,27.5c-0.1-1-0.4-1.9-0.8-2.8c-2.4-5.1-9.7-8.6-16.1-4.6c-2.4,1.5-4.1,3.5-4.8,6.3
		c-0.1,0.4-0.1,0.7-0.2,1.1C52.5,27.5,59.8,27.5,67,27.5z M56.1,14.6c3,0,5.4-2.4,5.4-5.3c0-3-2.3-5.4-5.4-5.4c-3,0-5.4,2.3-5.4,5.3
		C50.7,12.2,53.1,14.6,56.1,14.6z"/>
	<path class="st0" d="M111.1,29.7c-0.2,0.8-0.6,1.4-1.4,1.5c-0.3,0.1-0.6,0.1-0.9,0.1c-7.6,0-15.1,0-22.7,0c-0.9,0-1.7,0-2.6,0
		c-0.2,0-0.3,0-0.5,0c-1.2-0.1-1.9-0.8-1.8-2c0.1-3.4,1.1-6.5,3.3-9.1c1.3-1.6,2.9-2.8,4.6-3.8c0.2-0.1,0.4-0.2,0.6-0.4
		c0,0,0,0,0.1-0.1c-0.1-0.1-0.2-0.3-0.3-0.4c-1.1-1.6-2-3.3-2.3-5.2c-0.5-2.5,0.1-4.7,1.7-6.7c1.7-2,3.8-3.2,6.4-3.5
		c0.1,0,0.2,0,0.2-0.1c0.4,0,0.7,0,1.1,0c0.4,0.1,0.7,0.1,1.1,0.2c3.7,0.8,6.2,2.9,7.3,6.5c0.7,2.2,0.1,4.3-0.8,6.3
		c-0.4,0.9-1,1.7-1.5,2.6c1,0.8,2,1.7,3,2.5c2.5,2,4.3,4.5,5,7.8c0.2,0.8,0.3,1.6,0.4,2.5C111.1,28.9,111.1,29.3,111.1,29.7z
		 M107,27.5c-0.1-1-0.3-1.9-0.7-2.8c-2.1-4.6-8.6-8.4-15.1-5.2c-2.8,1.4-4.9,3.5-5.8,6.6c-0.1,0.4-0.2,0.9-0.3,1.3
		C92.5,27.5,99.7,27.5,107,27.5z M96.1,14.6c3,0,5.4-2.4,5.4-5.3c0-3-2.4-5.3-5.4-5.3c-3,0-5.3,2.3-5.4,5.3
		C90.7,12.2,93.1,14.6,96.1,14.6z"/>
	<path class="st0" d="M16.4,0.1c0.7,0.1,1.5,0.2,2.2,0.4c3.3,1.1,5.6,3.3,6.3,6.8c0.4,1.9,0,3.8-0.9,5.5c-0.5,1.1-1.1,2.1-1.7,3.1
		c0.1,0,0.2,0.1,0.4,0.2c4.2,2.3,7,5.7,7.9,10.4c0.2,1,0.3,2.1,0.2,3.2c0,1-0.7,1.5-1.7,1.5c-1.2,0.1-2.5,0-3.7,0
		c-7.4,0-14.8,0-22.2,0c-0.4,0-0.8-0.1-1.2-0.2c-0.7-0.2-0.9-0.7-1.1-1.3c0-0.4,0-0.8,0-1.2c0-0.1,0.1-0.3,0.1-0.4
		c0.2-1,0.3-2.1,0.6-3.1c1.1-4,3.7-6.8,7.3-8.8c0.2-0.1,0.5-0.3,0.6-0.4c-0.6-1.1-1.3-2.1-1.8-3.2c-0.9-1.9-1.3-3.9-0.7-6
		c0.9-3.2,3.1-5.2,6.2-6.2c0.7-0.2,1.5-0.3,2.2-0.5C15.7,0.1,16.1,0.1,16.4,0.1z M26.8,27.5c-0.1-1-0.4-2-0.8-2.9
		c-2.4-5-9.3-8.4-15.6-4.8c-2.5,1.4-4.4,3.5-5.2,6.3C5.1,26.6,5,27,4.9,27.5C12.3,27.5,19.5,27.5,26.8,27.5z M15.8,14.6
		c3,0,5.4-2.3,5.4-5.3c0-3-2.3-5.3-5.3-5.4c-3,0-5.4,2.3-5.4,5.3C10.5,12.2,12.9,14.6,15.8,14.6z"/>
	<path class="st0" d="M49.7,76.1c-3.4-2.9-5.1-6.5-4.5-11c0.4-3.2,1.9-5.7,4.3-7.7c4.8-3.9,12.1-3.4,16.3,1.2
		c4.2,4.6,4.6,12.3-1.5,17.5c0.2,0.1,0.5,0.2,0.7,0.3c2.9,1.4,5.5,3.2,7.6,5.7c2.5,3,3.8,6.5,4.2,10.3c0.1,0.8,0.2,1.5,0.1,2.3
		c-0.1,1.1-0.7,1.6-1.7,1.7c-0.2,0-0.4,0-0.6,0c-11.7,0-23.5,0-35.2,0c-0.3,0-0.6,0-0.9-0.1c-0.9-0.2-1.4-0.7-1.5-1.7
		c-0.1-1.6,0.2-3.2,0.6-4.8c1.4-5.8,4.8-9.9,10-12.8c0.6-0.3,1.2-0.6,1.7-0.9C49.4,76.2,49.5,76.2,49.7,76.1z M48.8,66.6
		c0,4.5,3.6,8.1,8.1,8.1c4.5,0,8.2-3.6,8.2-8.1c0-4.5-3.7-8.2-8.2-8.2C52.5,58.5,48.8,62.1,48.8,66.6z M51.7,79.5
		C46.1,81,41,87.4,41,92.7c0.1,0,0.2,0,0.2,0c3.1,0,6.1,0,9.2,0c0.6,0,0.8-0.2,1-0.8c0.6-2.7,1.3-5.4,1.9-8.1c0.1-0.3,0.1-0.6,0-0.8
		C52.8,81.8,52.3,80.6,51.7,79.5z M73,92.8c-0.1-0.7-0.1-1.3-0.2-1.9c-0.6-2.9-2.2-5.3-4.2-7.4c-1.6-1.6-3.4-2.9-5.5-3.7
		c-0.3-0.1-0.5-0.1-0.7,0.2c-0.3,0.6-0.6,1.1-0.9,1.7c-1,1.8-0.9,1.3-0.4,3.2c0.6,2.3,1.3,4.7,1.9,7c0.2,0.8,0.4,0.9,1.2,0.9
		c0.6,0,1.3,0,1.9,0C68.4,92.8,70.6,92.8,73,92.8z M59.3,92.7c-0.7-2.6-1.4-5.2-2.1-7.8c0,0-0.1,0-0.1,0c-0.1,0.1-0.2,0.2-0.2,0.4
		c-0.4,1.6-0.7,3.2-1.1,4.9c-0.2,0.8-0.4,1.7-0.6,2.6C56.6,92.7,57.9,92.7,59.3,92.7z M55.5,78.6c0.4,0.8,0.7,1.6,1.1,2.3
		c0.2,0.4,0.7,0.4,1,0c0.5-0.7,0.9-1.5,1.4-2.3C57.7,78.6,56.6,78.6,55.5,78.6z"/>
	<path class="st0" d="M26.2,74.4c2.5,1.9,4.9,3.8,7.3,5.7c0.3,0.2,0.5,0.5,0.6,0.8c0.3,0.7-0.1,1.5-0.7,2c-0.6,0.5-1.4,0.5-2.1,0
		c-0.6-0.4-1.2-0.9-1.9-1.3c-0.4-0.3-0.9-0.6-1.4-0.9c0.1,0.6,0.2,1.2,0.2,1.7c1.4,12.9,11.2,22.6,22.9,25
		c8.2,1.7,18.4-0.7,24.9-6.6c3.1-2.8,5.4-6.1,7.1-9.8c0.4-0.8,0.7-1.6,1-2.3c0.5-1.1,1.5-1.6,2.5-1.1c0.9,0.4,1.4,1.4,1,2.4
		c-0.6,1.4-1.1,2.9-1.8,4.3c-2.5,5.1-6.4,8.9-11.1,12.1c-3.6,2.4-7.5,4.1-11.8,4.9c-3.7,0.7-7.5,0.6-11.2,0
		c-4.8-0.9-9.4-2.5-13.5-5.2c-6-3.9-9.9-9.4-12.2-16.1c-0.9-2.7-1.6-5.5-1.8-8.4c0-0.2-0.1-0.4-0.1-0.7c-0.8,0.6-1.5,1.2-2.2,1.7
		c-0.4,0.3-0.8,0.5-1.3,0.7c-0.7,0.2-1.3,0-1.8-0.6c-0.5-0.6-0.6-1.2-0.3-1.8c0.2-0.3,0.4-0.7,0.7-0.9
		C21.5,78.2,23.8,76.4,26.2,74.4z"/>
	<path class="st0" d="M89.5,77.8c0.9-0.7,1.7-1.4,2.5-2.1c0.5-0.4,1-0.7,1.7-0.7c1.3,0,2.2,1.5,1.5,2.6c-0.2,0.3-0.4,0.6-0.7,0.8
		c-2.2,1.8-4.4,3.6-6.6,5.5c0,0-0.1,0.1-0.2,0.1c-0.1-0.1-0.2-0.1-0.3-0.2c-2.2-1.7-4.4-3.4-6.6-5.1c-0.3-0.2-0.5-0.5-0.7-0.7
		c-0.5-0.7-0.4-1.5,0-2.1c0.5-0.6,1.2-0.9,2-0.7c0.3,0.1,0.7,0.3,0.9,0.5c0.8,0.6,1.6,1.2,2.5,1.9c0-0.7-0.1-1.3-0.1-1.9
		c-1.1-7.9-4.7-14.3-11-19.2c-4.3-3.3-9.1-5.2-14.5-5.8c-11.5-1.2-22.5,4.3-28.2,14.2c-0.8,1.5-1.5,3-2.2,4.6
		c-0.5,1.1-1.3,1.6-2.3,1.3c-1-0.3-1.7-1.3-1.3-2.3c0.6-1.7,1.3-3.4,2.2-4.9c5-8.9,12.6-14.4,22.6-16.2c11.9-2.1,22.1,1.4,30.3,10.2
		c4.3,4.6,6.9,10.1,7.9,16.4c0.1,0.6,0.2,1.2,0.2,1.8C89.4,76.6,89.4,77.2,89.5,77.8z"/>
	<path class="st0" d="M84.8,47.3c-1,0-1.9-0.8-1.9-1.9c0-1,1-1.9,2-1.9c1,0,1.9,0.9,1.9,1.9C86.7,46.4,85.8,47.3,84.8,47.3z"/>
	<path class="st0" d="M92,40.1c0,1-0.9,1.9-2,1.9c-1,0-1.9-0.8-1.9-1.9c0-1,0.9-1.9,2-1.9C91.2,38.3,92,39.1,92,40.1z"/>
	<path class="st0" d="M20.8,40.1c0-1.1,0.8-1.8,1.9-1.8c1.1,0,2,0.9,2,1.9c0,1-0.8,1.9-1.9,1.8C21.6,42.1,20.8,41.2,20.8,40.1z"/>
	<path class="st0" d="M26,45.3c0-1.1,0.8-1.9,1.8-1.9c1.1,0,2,0.9,2,1.9c0,1-0.8,1.9-1.9,1.9C26.9,47.3,26,46.4,26,45.3z"/>
	<path class="st0" d="M56.7,33.9c1.1,0,1.8,0.8,1.8,1.9c0,1.1-0.9,1.9-1.9,1.9c-1,0-1.9-0.9-1.9-1.9C54.8,34.7,55.6,33.8,56.7,33.9z
		"/>
	<path class="st0" d="M58.5,41.9c0,1-0.9,1.9-1.9,1.9c-1,0-1.9-0.9-1.9-1.9c0-1,0.9-1.9,1.9-1.9C57.7,40.1,58.5,40.9,58.5,41.9z"/>
	<path class="st0" d="M95.2,36.8c-1,0-1.8-0.8-1.8-1.9c0-1,0.9-1.9,1.9-1.9c1,0,1.9,0.9,1.9,1.9C97.2,36,96.3,36.9,95.2,36.8z"/>
	<path class="st0" d="M79.6,48.7c1,0,1.9,0.9,1.9,1.9c0,1-0.9,1.9-1.9,1.9c-1,0-1.9-0.8-1.9-1.9C77.7,49.6,78.6,48.7,79.6,48.7z"/>
	<path class="st0" d="M17.4,36.8c-1.1,0-1.9-0.8-1.9-1.9c0-1,0.8-1.9,1.9-1.8c1,0,1.9,0.9,1.9,1.9C19.3,36,18.5,36.8,17.4,36.8z"/>
	<path class="st0" d="M35,50.6c0,1-0.8,1.8-1.9,1.8c-1.1,0-1.9-0.8-1.9-1.9c0-1,0.8-1.9,1.9-1.9C34.2,48.7,35,49.6,35,50.6z"/>
</g>
<g class="st1">
	<path class="st2" d="M-58.3,7.9c0.8,0.1,1.6,0.2,2.4,0.3c8.2,1.6,13.8,6.2,16.1,14.3c1.1,3.9,0.6,7.8-0.9,11.6
		c-2.1,5-4.7,9.7-7.6,14.3c-2.8,4.4-5.9,8.5-9,12.7c-0.9,1.2-1.9,1.2-2.8,0c-0.7-0.9-1.3-1.8-2-2.6c-4.1-5.5-8-11.2-11.2-17.3
		c-1.4-2.7-2.9-5.4-3.8-8.2c-2.1-6.2-1.1-12,2.8-17.2c2.3-3.1,5.2-5.3,8.8-6.7c1.5-0.6,3.1-0.9,4.7-1.1c0.1,0,0.2,0,0.3-0.1
		C-59.7,7.9-59,7.9-58.3,7.9z M-58.7,58c0.2-0.3,0.4-0.5,0.5-0.7c2.7-4,5.5-8,8.2-12.1c2.5-3.8,4.7-7.9,6.4-12.1
		c0.7-1.6,1.1-3.3,1.3-5.1c0.2-2.2-0.2-4.3-1-6.4C-46,14-53.7,9.7-61.9,11.2c-4.1,0.8-7.4,2.9-9.9,6.2c-3.4,4.5-4.4,9.5-2.3,14.9
		c1.2,3.2,2.8,6.3,4.5,9.3c2.9,5.1,6.3,10,9.7,14.8C-59.4,56.9-59.1,57.5-58.7,58z"/>
	<path class="st2" d="M-115.5,7.9c0.8,0.1,1.7,0.2,2.5,0.3c8.2,1.6,13.8,6.2,16.2,14.3c1.1,3.9,0.6,7.7-0.8,11.4
		c-2,5-4.6,9.7-7.6,14.3c-2.9,4.5-5.9,8.7-9.1,13c0,0,0,0,0,0.1c-0.9,1.1-1.8,1.1-2.7,0c-0.7-0.9-1.3-1.8-2-2.6
		c-4-5.4-7.7-10.9-10.9-16.7c-1.6-2.9-3.1-5.8-4.2-8.9c-0.6-1.7-1-3.3-1.1-5.1c0-0.1,0-0.2-0.1-0.3c0-0.6,0-1.1,0-1.7
		c0.1-0.7,0.2-1.4,0.3-2.1c0.6-3.2,2-6,4-8.6c2.9-3.7,6.6-6.1,11.2-7.1c0.8-0.2,1.5-0.2,2.3-0.4C-116.8,7.9-116.2,7.9-115.5,7.9z
		 M-115.8,58c0.2-0.2,0.3-0.4,0.5-0.6c2.8-4.2,5.8-8.3,8.5-12.5c2.5-3.8,4.6-7.7,6.2-11.9c1.2-3,1.7-6,0.9-9.3
		c-1.9-8.3-10-13.9-18.4-12.7c-4.8,0.7-8.6,3.1-11.3,7c-2.9,4.2-3.7,8.7-2,13.6c1,2.9,2.4,5.7,3.8,8.4
		C-124.1,46.4-120,52.2-115.8,58z"/>
	<path class="st2" d="M-87.4,104.1c-0.5-0.2-0.9-0.6-1.2-1c-3.8-5.1-7.5-10.2-10.8-15.7c-2.1-3.5-4.1-7.1-5.6-10.9
		c-1-2.3-1.6-4.7-1.6-7.2c-0.1-3.3,0.7-6.5,2.4-9.3c2.3-3.9,5.4-7,9.6-8.7c4.5-1.9,9.1-1.8,13.7-0.2c6.6,2.3,10.9,6.9,12.7,13.6
		c1,3.7,0.6,7.3-0.8,10.9C-70.7,80-72.8,84-75.2,88c-3.2,5.3-6.9,10.3-10.6,15.3c-0.3,0.3-0.7,0.6-1,0.9
		C-87.1,104.1-87.2,104.1-87.4,104.1z M-87.2,100.1c0.2-0.3,0.4-0.4,0.5-0.7c2.6-3.8,5.3-7.6,7.8-11.4c2.7-4.1,5-8.3,6.8-12.8
		c1.2-3,1.7-6,1-9.1c-2.3-9.8-11.5-14.8-20.6-12.5c-3.2,0.8-5.8,2.7-8,5.2c-4.1,4.7-5.2,9.9-3.1,15.8c1.1,3,2.6,5.7,4.1,8.5
		c3.3,5.8,7.1,11.3,11,16.7C-87.4,99.8-87.3,99.9-87.2,100.1z"/>
	<path class="st2" d="M-87.2,25.9c1.4,0,2.8,0,4.2,0c0.2,0,0.5,0,0.7,0.1c0.7,0.2,1.2,0.8,1.1,1.5c0,0.7-0.5,1.3-1.2,1.4
		c-0.6,0.1-1.3,0.1-1.9,0.1c-2.3,0-4.7,0-7,0c-0.2,0-0.4,0-0.6,0c-0.9-0.1-1.3-0.7-1.3-1.5c0-0.8,0.6-1.3,1.4-1.4c0.6,0,1.2,0,1.8,0
		C-89,25.9-88.1,25.9-87.2,25.9C-87.2,25.9-87.2,25.9-87.2,25.9z"/>
	<path class="st2" d="M-122.1,74.4c-0.6,0-1.1-0.3-1.3-0.9c-0.6-1.9-1.2-3.7-1.7-5.6c-0.2-0.8,0.2-1.5,1-1.7
		c0.8-0.3,1.5,0.1,1.8,0.8c0.3,0.9,0.6,1.8,0.9,2.7c0.3,0.9,0.6,1.8,0.8,2.7C-120.4,73.4-121.1,74.4-122.1,74.4z"/>
	<path class="st2" d="M-54.7,76.4c0.6,0,1,0.3,1.3,0.8c0.3,0.5,0.2,1-0.1,1.5c-1.1,1.5-2.1,3.1-3.2,4.7c-0.5,0.7-1.3,0.8-2,0.4
		c-0.7-0.5-0.9-1.3-0.4-2c1.1-1.6,2.1-3.1,3.2-4.7C-55.6,76.6-55.2,76.4-54.7,76.4z"/>
	<path class="st2" d="M-114.9,82.5c-0.1,0.6-0.5,1.2-1.1,1.4c-0.6,0.2-1.2,0.1-1.6-0.4c-0.2-0.3-0.4-0.5-0.6-0.8
		c-0.9-1.3-1.8-2.6-2.6-3.9c-0.7-1.1-0.2-2.2,1-2.4c0.2,0,0.5,0,0.6,0.1c0.4,0.3,0.7,0.6,1,1c0.9,1.3,1.9,2.6,2.7,4
		C-115.2,81.8-115.1,82.2-114.9,82.5z"/>
	<path class="st2" d="M-50.6,66c1,0,1.7,0.9,1.4,1.9c-0.6,1.8-1.1,3.6-1.7,5.4c-0.2,0.6-0.6,0.9-1.1,1c-1,0.2-1.9-0.8-1.7-1.8
		c0.5-1.9,1.2-3.8,1.8-5.6C-51.7,66.4-51.2,66-50.6,66z"/>
	<path class="st2" d="M-112.6,85c0.3,0.1,0.6,0.2,0.8,0.4c1.5,1.2,3,2.4,4.4,3.6c0.4,0.3,0.6,0.8,0.5,1.4c-0.1,0.6-0.5,1-1,1.2
		c-0.4,0.1-0.7,0.1-1-0.2c-1.6-1.3-3.3-2.6-4.9-3.9c-0.4-0.3-0.5-0.9-0.3-1.4C-113.8,85.5-113.3,85.1-112.6,85z"/>
	<path class="st2" d="M-66.3,91.7c-0.3-0.3-0.6-0.5-0.9-0.8c-0.6-0.6-0.6-1.3,0.1-1.9c1.5-1.2,3.1-2.5,4.6-3.7
		c0.5-0.4,1.1-0.4,1.6,0c0.5,0.3,0.8,1,0.7,1.5c-0.1,0.3-0.2,0.5-0.4,0.7c-1.6,1.3-3.2,2.5-4.8,3.8C-65.6,91.5-66,91.6-66.3,91.7z"
		/>
	<path class="st2" d="M-94.7,46.9c0,1.1-1,1.8-1.9,1.5c-0.3-0.1-0.6-0.3-0.8-0.5c-0.9-0.9-1.8-1.8-2.7-2.7c-0.8-0.8-0.7-1.6,0.1-2.3
		c0.7-0.6,0.7-0.6,1.5-0.1c0.2,0.1,0.4,0.2,0.5,0.4c0.9,0.9,1.8,1.8,2.7,2.7C-95,46.1-94.7,46.5-94.7,46.9z"/>
	<path class="st2" d="M-79.7,47c0.1-0.5,0.2-0.9,0.6-1.2c1-1,2-2,3-3c0.7-0.6,1.4-0.6,2,0.1c0.7,0.8,0.8,0.9,0.2,1.8
		c-0.1,0.1-0.2,0.3-0.3,0.4c-0.9,0.9-1.8,1.9-2.7,2.8c-0.8,0.8-1.9,0.7-2.4-0.2C-79.6,47.5-79.6,47.3-79.7,47z"/>
	<path class="st2" d="M-51.2,60.6c0-0.5,0-1,0.1-1.6c0.1-0.9,0.7-1.5,1.5-1.5c0.8,0,1.5,0.7,1.5,1.5c0,1,0,2.1-0.1,3.1
		c-0.1,0.8-0.8,1.4-1.6,1.4c-0.8-0.1-1.4-0.7-1.4-1.6C-51.2,61.5-51.2,61-51.2,60.6C-51.2,60.6-51.2,60.6-51.2,60.6z"/>
	<path class="st2" d="M-99.2,93.8c0,1.3-1,2-2,1.6c-1-0.4-2-0.8-2.9-1.3c-0.8-0.4-1-1.1-0.7-1.9c0.3-0.7,1.1-1.1,1.8-0.8
		c1,0.4,2,0.9,3.1,1.3C-99.4,93-99.2,93.5-99.2,93.8z"/>
	<path class="st2" d="M-126.2,60.4c0-0.4,0-0.9,0-1.3c0-0.9,0.7-1.6,1.5-1.6c0.8,0,1.4,0.6,1.5,1.5c0.1,0.9,0.1,1.9,0.1,2.8
		c0,0.9-0.6,1.6-1.4,1.7c-0.8,0.1-1.5-0.5-1.6-1.4C-126.2,61.5-126.2,60.9-126.2,60.4C-126.2,60.4-126.2,60.4-126.2,60.4z"/>
	<path class="st2" d="M-71,91.4c1,0,1.7,0.8,1.5,1.7c-0.1,0.4-0.5,0.8-0.9,1.1c-0.9,0.5-1.9,0.9-2.9,1.3c-0.7,0.3-1.5-0.1-1.8-0.8
		c-0.3-0.7-0.1-1.5,0.6-1.8c1-0.5,2.1-0.9,3.2-1.4C-71.2,91.4-71,91.4-71,91.4z"/>
	<path class="st2" d="M-70.7,27.4c0-6.7,5.4-12,12.1-12c6.6,0,12,5.4,12,12c0,6.6-5.4,12-12.1,12C-65.3,39.4-70.7,34-70.7,27.4z
		 M-59.8,30.4c-0.6-0.5-1.3-0.9-1.9-1.4c-1.1-1-1.7-2.3-1.4-3.8c0.3-1.9,1.4-3.2,3.3-3.7c1.9-0.5,3.5,0.1,4.7,1.6
		c1.1,1.4,1.7,3.8-0.4,5.7c-0.5,0.5-1.1,0.8-1.6,1.2c-0.1,0.1-0.2,0.1-0.3,0.2c0,0,0,0.1,0,0.1c2.6-0.1,3.9,1.4,4.8,3.6
		c0.1-0.1,0.2-0.1,0.3-0.2c2.3-2.2,3.1-4.9,2.6-7.9c-0.8-5.1-5.6-8.4-10.6-7.4c-6.7,1.3-9.2,8.6-5.7,14c0.4,0.6,0.9,1.1,1.5,1.5
		C-63.9,31.7-62.3,30.5-59.8,30.4z M-58.6,33.4c-0.7,0-1.3,0.1-1.9,0.1c-0.5,0-0.8,0.3-1,0.7c-0.1,0.4-0.2,0.8-0.2,1.2
		c0,0.3,0.2,0.5,0.5,0.6c0.3,0,0.5,0.1,0.8,0.2c1.4,0.3,2.8,0.2,4.2-0.2c0.2-0.1,0.4-0.2,0.5-0.3c0.4-0.7-0.2-2.1-1-2.2
		C-57.3,33.5-58,33.5-58.6,33.4z M-57.1,25.9c0-0.8-0.7-1.5-1.5-1.5c-0.8,0-1.5,0.7-1.5,1.5c0,0.8,0.7,1.5,1.5,1.5
		C-57.8,27.4-57.1,26.7-57.1,25.9z"/>
	<path class="st2" d="M-127.7,27.3c0-6.6,5.4-11.9,12-11.9c6.7,0,12,5.4,12,12.1c0,6.6-5.5,12-12,12
		C-122.4,39.5-127.7,34.1-127.7,27.3z M-116.9,30.4c-0.7-0.5-1.3-0.9-1.9-1.4c-0.6-0.5-1-1.1-1.3-1.8c-0.7-1.9,0.2-4.2,2.1-5.2
		c1.9-1.1,4.2-0.7,5.6,0.9c1.6,1.9,1.5,4.3-0.2,5.9c-0.5,0.5-1.1,0.8-1.6,1.3c-0.1,0.1-0.2,0.1-0.4,0.3c2.6,0,4.1,1.3,4.9,3.7
		c0.3-0.2,0.5-0.5,0.7-0.7c1.8-2.1,2.5-4.5,2.2-7.2c-0.7-5-5.4-8.4-10.3-7.6c-4.4,0.7-7.4,4.2-7.6,8.6c-0.1,2.1,0.5,4,1.8,5.7
		c0.3,0.4,0.8,0.8,1.3,1.3C-120.9,31.7-119.4,30.4-116.9,30.4z M-115.7,33.5C-115.7,33.4-115.7,33.4-115.7,33.5c-0.4,0-0.8,0-1.3,0
		c-1.2,0-1.7,0.5-1.8,1.7c0,0.6,0.1,0.8,0.7,1c1.5,0.4,3,0.4,4.5,0c0.8-0.2,0.9-0.3,0.9-1.2c0-0.9-0.5-1.4-1.4-1.5
		C-114.6,33.4-115.1,33.5-115.7,33.5z M-117.2,25.9c0,0.8,0.7,1.5,1.5,1.5c0.8,0,1.5-0.7,1.5-1.5c0-0.8-0.7-1.5-1.5-1.5
		C-116.6,24.4-117.2,25.1-117.2,25.9z"/>
	<path class="st2" d="M-87.2,57.5c6.6,0,12,5.4,12,12c0,6.7-5.4,12-12,12c-6.7,0-12-5.4-12-12C-99.2,62.9-93.8,57.5-87.2,57.5z
		 M-81.2,76.1c0,0,0.1,0,0.1,0.1c0.2-0.3,0.5-0.6,0.7-0.8c1.8-2.1,2.5-4.6,2.1-7.3c-1-6.7-8.9-9.9-14.3-5.8
		c-2.7,2.1-3.8,4.9-3.5,8.3c0.2,2.1,1,4,2.7,5.4c0.1,0.1,0.2,0.1,0.3,0.2c0.7-2.3,2.3-3.6,4.8-3.7c-0.4-0.3-0.7-0.4-1-0.6
		c-0.9-0.6-1.7-1.4-2.1-2.5c-0.7-2,0.4-4.4,2.3-5.3c1.9-1,4.5-0.3,5.7,1.4c1.7,2.4,0.7,5.5-2,6.8c-0.1,0.1-0.2,0.1-0.5,0.2
		C-83.4,72.6-81.9,73.8-81.2,76.1z M-87.2,75.5C-87.2,75.5-87.2,75.5-87.2,75.5c-0.6,0-1.2,0-1.8,0.1c-0.9,0.1-1.5,1.2-1.1,2
		c0.1,0.2,0.3,0.4,0.5,0.5c1.7,0.6,3.4,0.5,5,0c0.2-0.1,0.4-0.3,0.5-0.5c0.3-1-0.5-2-1.6-2.1C-86.2,75.5-86.7,75.5-87.2,75.5z
		 M-87.2,69.5c0.9,0,1.5-0.6,1.5-1.5c0-0.8-0.7-1.5-1.5-1.5c-0.8,0-1.5,0.6-1.5,1.5C-88.7,68.8-88,69.5-87.2,69.5z"/>
</g>
</svg>
