<?xml version="1.0" encoding="utf-8"?>
<!-- Generator: Adobe Illustrator 23.0.3, SVG Export Plug-In . SVG Version: 6.00 Build 0)  -->
<svg version="1.1" id="Layer_1" xmlns="http://www.w3.org/2000/svg" xmlns:xlink="http://www.w3.org/1999/xlink" x="0px" y="0px"
	 viewBox="0 0 112 112" style="enable-background:new 0 0 112 112;" xml:space="preserve">
<style type="text/css">
	.st0{display:none;}
	.st1{display:inline;fill:#FFFFFF;}
	.st2{fill:#2176FF;}
</style>
<g class="st0">
	<path class="st1" d="M56.5,0.1c0.6,0.1,1.2,0.2,1.8,0.3c6.4,1.6,9,8.9,5.1,14.3c-0.3,0.4-0.6,0.8-1,1.2c0.3,0.2,0.6,0.3,0.8,0.5
		c3.6,2.1,6.2,5.1,7.3,9.2c0.3,1.1,0.4,2.3,0.5,3.5c0.1,1.4-0.6,2.1-1.9,2.2c-0.2,0-0.5,0-0.7,0c-8.2,0-16.5,0-24.7,0
		c-0.3,0-0.6,0-0.9,0c-1.1-0.1-1.7-0.7-1.7-1.9c0-3,0.8-5.8,2.5-8.3c1.4-2.1,3.3-3.6,5.4-4.8c0.2-0.1,0.5-0.3,0.7-0.4
		c-0.2-0.3-0.4-0.5-0.5-0.8c-1-1.6-1.9-3.2-2.1-5.1c-0.4-2.5,0.3-4.7,1.9-6.6c1.7-1.9,3.8-3.1,6.4-3.3c0.1,0,0.2,0,0.3-0.1
		C55.9,0.1,56.2,0.1,56.5,0.1z M67,27.5c-0.1-1-0.4-1.9-0.8-2.8c-2.4-5.1-9.7-8.6-16.1-4.6c-2.4,1.5-4.1,3.5-4.8,6.3
		c-0.1,0.4-0.1,0.7-0.2,1.1C52.5,27.5,59.8,27.5,67,27.5z M56.1,14.6c3,0,5.4-2.4,5.4-5.3c0-3-2.3-5.4-5.4-5.4c-3,0-5.4,2.3-5.4,5.3
		C50.7,12.2,53.1,14.6,56.1,14.6z"/>
	<path class="st1" d="M111.1,29.7c-0.2,0.8-0.6,1.4-1.4,1.5c-0.3,0.1-0.6,0.1-0.9,0.1c-7.6,0-15.1,0-22.7,0c-0.9,0-1.7,0-2.6,0
		c-0.2,0-0.3,0-0.5,0c-1.2-0.1-1.9-0.8-1.8-2c0.1-3.4,1.1-6.5,3.3-9.1c1.3-1.6,2.9-2.8,4.6-3.8c0.2-0.1,0.4-0.2,0.6-0.4
		c0,0,0,0,0.1-0.1c-0.1-0.1-0.2-0.3-0.3-0.4c-1.1-1.6-2-3.3-2.3-5.2c-0.5-2.5,0.1-4.7,1.7-6.7c1.7-2,3.8-3.2,6.4-3.5
		c0.1,0,0.2,0,0.2-0.1c0.4,0,0.7,0,1.1,0c0.4,0.1,0.7,0.1,1.1,0.2c3.7,0.8,6.2,2.9,7.3,6.5c0.7,2.2,0.1,4.3-0.8,6.3
		c-0.4,0.9-1,1.7-1.5,2.6c1,0.8,2,1.7,3,2.5c2.5,2,4.3,4.5,5,7.8c0.2,0.8,0.3,1.6,0.4,2.5C111.1,28.9,111.1,29.3,111.1,29.7z
		 M107,27.5c-0.1-1-0.3-1.9-0.7-2.8c-2.1-4.6-8.6-8.4-15.1-5.2c-2.8,1.4-4.9,3.5-5.8,6.6c-0.1,0.4-0.2,0.9-0.3,1.3
		C92.5,27.5,99.7,27.5,107,27.5z M96.1,14.6c3,0,5.4-2.4,5.4-5.3c0-3-2.4-5.3-5.4-5.3s-5.3,2.3-5.4,5.3
		C90.7,12.2,93.1,14.6,96.1,14.6z"/>
	<path class="st1" d="M16.4,0.1c0.7,0.1,1.5,0.2,2.2,0.4c3.3,1.1,5.6,3.3,6.3,6.8c0.4,1.9,0,3.8-0.9,5.5c-0.5,1.1-1.1,2.1-1.7,3.1
		c0.1,0,0.2,0.1,0.4,0.2c4.2,2.3,7,5.7,7.9,10.4c0.2,1,0.3,2.1,0.2,3.2c0,1-0.7,1.5-1.7,1.5c-1.2,0.1-2.5,0-3.7,0
		c-7.4,0-14.8,0-22.2,0c-0.4,0-0.8-0.1-1.2-0.2c-0.7-0.2-0.9-0.7-1.1-1.3c0-0.4,0-0.8,0-1.2c0-0.1,0.1-0.3,0.1-0.4
		c0.2-1,0.3-2.1,0.6-3.1c1.1-4,3.7-6.8,7.3-8.8c0.2-0.1,0.5-0.3,0.6-0.4c-0.6-1.1-1.3-2.1-1.8-3.2c-0.9-1.9-1.3-3.9-0.7-6
		c0.9-3.2,3.1-5.2,6.2-6.2c0.7-0.2,1.5-0.3,2.2-0.5C15.7,0.1,16.1,0.1,16.4,0.1z M26.8,27.5c-0.1-1-0.4-2-0.8-2.9
		c-2.4-5-9.3-8.4-15.6-4.8c-2.5,1.4-4.4,3.5-5.2,6.3C5.1,26.6,5,27,4.9,27.5C12.3,27.5,19.5,27.5,26.8,27.5z M15.8,14.6
		c3,0,5.4-2.3,5.4-5.3S18.9,4,15.9,3.9c-3,0-5.4,2.3-5.4,5.3S12.9,14.6,15.8,14.6z"/>
	<path class="st1" d="M49.7,76.1c-3.4-2.9-5.1-6.5-4.5-11c0.4-3.2,1.9-5.7,4.3-7.7c4.8-3.9,12.1-3.4,16.3,1.2
		c4.2,4.6,4.6,12.3-1.5,17.5c0.2,0.1,0.5,0.2,0.7,0.3c2.9,1.4,5.5,3.2,7.6,5.7c2.5,3,3.8,6.5,4.2,10.3c0.1,0.8,0.2,1.5,0.1,2.3
		c-0.1,1.1-0.7,1.6-1.7,1.7c-0.2,0-0.4,0-0.6,0c-11.7,0-23.5,0-35.2,0c-0.3,0-0.6,0-0.9-0.1c-0.9-0.2-1.4-0.7-1.5-1.7
		c-0.1-1.6,0.2-3.2,0.6-4.8c1.4-5.8,4.8-9.9,10-12.8c0.6-0.3,1.2-0.6,1.7-0.9C49.4,76.2,49.5,76.2,49.7,76.1z M48.8,66.6
		c0,4.5,3.6,8.1,8.1,8.1s8.2-3.6,8.2-8.1s-3.7-8.2-8.2-8.2C52.5,58.5,48.8,62.1,48.8,66.6z M51.7,79.5C46.1,81,41,87.4,41,92.7
		c0.1,0,0.2,0,0.2,0c3.1,0,6.1,0,9.2,0c0.6,0,0.8-0.2,1-0.8c0.6-2.7,1.3-5.4,1.9-8.1c0.1-0.3,0.1-0.6,0-0.8
		C52.8,81.8,52.3,80.6,51.7,79.5z M73,92.8c-0.1-0.7-0.1-1.3-0.2-1.9c-0.6-2.9-2.2-5.3-4.2-7.4c-1.6-1.6-3.4-2.9-5.5-3.7
		c-0.3-0.1-0.5-0.1-0.7,0.2c-0.3,0.6-0.6,1.1-0.9,1.7c-1,1.8-0.9,1.3-0.4,3.2c0.6,2.3,1.3,4.7,1.9,7c0.2,0.8,0.4,0.9,1.2,0.9
		c0.6,0,1.3,0,1.9,0C68.4,92.8,70.6,92.8,73,92.8z M59.3,92.7c-0.7-2.6-1.4-5.2-2.1-7.8h-0.1c-0.1,0.1-0.2,0.2-0.2,0.4
		c-0.4,1.6-0.7,3.2-1.1,4.9c-0.2,0.8-0.4,1.7-0.6,2.6C56.6,92.7,57.9,92.7,59.3,92.7z M55.5,78.6c0.4,0.8,0.7,1.6,1.1,2.3
		c0.2,0.4,0.7,0.4,1,0c0.5-0.7,0.9-1.5,1.4-2.3C57.7,78.6,56.6,78.6,55.5,78.6z"/>
	<path class="st1" d="M26.2,74.4c2.5,1.9,4.9,3.8,7.3,5.7c0.3,0.2,0.5,0.5,0.6,0.8c0.3,0.7-0.1,1.5-0.7,2c-0.6,0.5-1.4,0.5-2.1,0
		c-0.6-0.4-1.2-0.9-1.9-1.3C29,81.3,28.5,81,28,80.7c0.1,0.6,0.2,1.2,0.2,1.7c1.4,12.9,11.2,22.6,22.9,25c8.2,1.7,18.4-0.7,24.9-6.6
		c3.1-2.8,5.4-6.1,7.1-9.8c0.4-0.8,0.7-1.6,1-2.3c0.5-1.1,1.5-1.6,2.5-1.1c0.9,0.4,1.4,1.4,1,2.4c-0.6,1.4-1.1,2.9-1.8,4.3
		c-2.5,5.1-6.4,8.9-11.1,12.1c-3.6,2.4-7.5,4.1-11.8,4.9c-3.7,0.7-7.5,0.6-11.2,0c-4.8-0.9-9.4-2.5-13.5-5.2
		c-6-3.9-9.9-9.4-12.2-16.1c-0.9-2.7-1.6-5.5-1.8-8.4c0-0.2-0.1-0.4-0.1-0.7c-0.8,0.6-1.5,1.2-2.2,1.7c-0.4,0.3-0.8,0.5-1.3,0.7
		c-0.7,0.2-1.3,0-1.8-0.6s-0.6-1.2-0.3-1.8c0.2-0.3,0.4-0.7,0.7-0.9C21.5,78.2,23.8,76.4,26.2,74.4z"/>
	<path class="st1" d="M89.5,77.8c0.9-0.7,1.7-1.4,2.5-2.1c0.5-0.4,1-0.7,1.7-0.7c1.3,0,2.2,1.5,1.5,2.6c-0.2,0.3-0.4,0.6-0.7,0.8
		c-2.2,1.8-4.4,3.6-6.6,5.5c0,0-0.1,0.1-0.2,0.1c-0.1-0.1-0.2-0.1-0.3-0.2c-2.2-1.7-4.4-3.4-6.6-5.1c-0.3-0.2-0.5-0.5-0.7-0.7
		c-0.5-0.7-0.4-1.5,0-2.1c0.5-0.6,1.2-0.9,2-0.7c0.3,0.1,0.7,0.3,0.9,0.5c0.8,0.6,1.6,1.2,2.5,1.9c0-0.7-0.1-1.3-0.1-1.9
		c-1.1-7.9-4.7-14.3-11-19.2c-4.3-3.3-9.1-5.2-14.5-5.8C48.4,49.5,37.4,55,31.7,64.9c-0.8,1.5-1.5,3-2.2,4.6
		c-0.5,1.1-1.3,1.6-2.3,1.3c-1-0.3-1.7-1.3-1.3-2.3c0.6-1.7,1.3-3.4,2.2-4.9c5-8.9,12.6-14.4,22.6-16.2c11.9-2.1,22.1,1.4,30.3,10.2
		c4.3,4.6,6.9,10.1,7.9,16.4c0.1,0.6,0.2,1.2,0.2,1.8C89.4,76.6,89.4,77.2,89.5,77.8z"/>
	<path class="st1" d="M84.8,47.3c-1,0-1.9-0.8-1.9-1.9c0-1,1-1.9,2-1.9s1.9,0.9,1.9,1.9C86.7,46.4,85.8,47.3,84.8,47.3z"/>
	<path class="st1" d="M92,40.1c0,1-0.9,1.9-2,1.9c-1,0-1.9-0.8-1.9-1.9c0-1,0.9-1.9,2-1.9C91.2,38.3,92,39.1,92,40.1z"/>
	<path class="st1" d="M20.8,40.1c0-1.1,0.8-1.8,1.9-1.8s2,0.9,2,1.9s-0.8,1.9-1.9,1.8C21.6,42.1,20.8,41.2,20.8,40.1z"/>
	<path class="st1" d="M26,45.3c0-1.1,0.8-1.9,1.8-1.9c1.1,0,2,0.9,2,1.9s-0.8,1.9-1.9,1.9C26.9,47.3,26,46.4,26,45.3z"/>
	<path class="st1" d="M56.7,33.9c1.1,0,1.8,0.8,1.8,1.9c0,1.1-0.9,1.9-1.9,1.9s-1.9-0.9-1.9-1.9C54.8,34.7,55.6,33.8,56.7,33.9z"/>
	<path class="st1" d="M58.5,41.9c0,1-0.9,1.9-1.9,1.9s-1.9-0.9-1.9-1.9s0.9-1.9,1.9-1.9C57.7,40.1,58.5,40.9,58.5,41.9z"/>
	<path class="st1" d="M95.2,36.8c-1,0-1.8-0.8-1.8-1.9c0-1,0.9-1.9,1.9-1.9s1.9,0.9,1.9,1.9C97.2,36,96.3,36.9,95.2,36.8z"/>
	<path class="st1" d="M79.6,48.7c1,0,1.9,0.9,1.9,1.9s-0.9,1.9-1.9,1.9s-1.9-0.8-1.9-1.9C77.7,49.6,78.6,48.7,79.6,48.7z"/>
	<path class="st1" d="M17.4,36.8c-1.1,0-1.9-0.8-1.9-1.9c0-1,0.8-1.9,1.9-1.8c1,0,1.9,0.9,1.9,1.9S18.5,36.8,17.4,36.8z"/>
	<path class="st1" d="M35,50.6c0,1-0.8,1.8-1.9,1.8c-1.1,0-1.9-0.8-1.9-1.9c0-1,0.8-1.9,1.9-1.9C34.2,48.7,35,49.6,35,50.6z"/>
</g>
<g>
	<path class="st2" d="M89.3,0.3c0.9,0.1,1.9,0.2,2.8,0.4c9.5,1.9,16,7.2,18.7,16.6c1.3,4.6,0.7,9.1-1.1,13.4
		c-2.4,5.8-5.4,11.3-8.9,16.6C97.5,52.4,94,57.2,90.4,62c-1.1,1.4-2.2,1.4-3.3,0c-0.8-1-1.5-2-2.3-3.1c-4.7-6.4-9.2-13-13-20
		c-1.7-3.1-3.3-6.2-4.5-9.6c-2.4-7.2-1.3-13.9,3.3-20c2.7-3.5,6-6.2,10.2-7.8c1.8-0.7,3.6-1.1,5.5-1.2c0.1,0,0.3-0.1,0.4-0.1
		C87.7,0.3,88.5,0.3,89.3,0.3z M88.9,58.5c0.2-0.3,0.4-0.5,0.6-0.8c3.2-4.7,6.4-9.3,9.5-14c2.9-4.5,5.5-9.1,7.5-14.1
		c0.8-1.9,1.3-3.8,1.5-5.9c0.2-2.6-0.3-5-1.2-7.4C103.5,7.4,94.6,2.4,85.1,4.2c-4.7,0.9-8.6,3.4-11.4,7.2c-3.9,5.2-5.1,11-2.7,17.3
		c1.4,3.8,3.3,7.3,5.3,10.8c3.4,5.9,7.3,11.6,11.3,17.1C88,57.3,88.4,57.9,88.9,58.5z"/>
	<path class="st2" d="M23,0.3c1,0.1,1.9,0.2,2.9,0.4c9.5,1.9,16,7.2,18.7,16.6c1.3,4.5,0.8,8.9-1,13.2c-2.3,5.8-5.4,11.3-8.8,16.5
		c-3.3,5.2-6.9,10.1-10.6,15c0,0,0,0-0.1,0.1c-1,1.3-2.1,1.3-3.1,0c-0.8-1-1.5-2-2.3-3.1C14.1,52.8,9.8,46.4,6,39.6
		c-1.8-3.3-3.6-6.7-4.8-10.3c-0.6-1.9-1.1-3.9-1.2-5.9c0-0.1,0-0.2-0.1-0.4c0-0.6,0-1.3,0-1.9c0.1-0.8,0.2-1.6,0.3-2.4
		c0.7-3.7,2.3-7,4.6-10c3.3-4.3,7.6-7.1,13-8.2c0.9-0.2,1.8-0.3,2.7-0.4C21.4,0.3,22.2,0.3,23,0.3z M22.7,58.5
		c0.2-0.2,0.4-0.5,0.6-0.7c3.3-4.8,6.7-9.6,9.9-14.5c2.9-4.4,5.3-9,7.2-13.8c1.4-3.5,1.9-7,1.1-10.7C39.1,9.1,29.8,2.6,20,4
		c-5.5,0.8-9.9,3.5-13.1,8.1C3.5,17,2.6,22.2,4.5,27.9c1.2,3.4,2.8,6.6,4.5,9.8C12.9,45,17.7,51.8,22.7,58.5z"/>
	<path class="st2" d="M55.5,112c-0.6-0.2-1.1-0.7-1.4-1.2c-4.4-5.9-8.7-11.8-12.5-18.2c-2.4-4.1-4.7-8.3-6.5-12.6
		c-1.1-2.7-1.8-5.4-1.9-8.3c-0.1-3.9,0.9-7.5,2.8-10.8c2.7-4.5,6.3-8.1,11.2-10.1c5.3-2.2,10.6-2.1,15.9-0.2
		c7.6,2.7,12.6,8,14.7,15.8c1.2,4.3,0.7,8.5-0.9,12.6c-1.9,5-4.4,9.7-7.2,14.2c-3.8,6.2-8,12-12.3,17.8c-0.3,0.4-0.8,0.7-1.2,1
		C55.9,112,55.7,112,55.5,112z M55.8,107.3c0.2-0.3,0.4-0.5,0.6-0.8c3-4.4,6.1-8.8,9.1-13.2c3.1-4.7,5.8-9.6,7.9-14.9
		c1.4-3.4,2-6.9,1.2-10.6C72,56.5,61.3,50.7,50.7,53.3c-3.8,0.9-6.8,3.1-9.3,6c-4.7,5.4-6,11.5-3.6,18.3c1.2,3.5,3,6.7,4.8,9.9
		c3.8,6.8,8.2,13.1,12.8,19.4C55.5,107,55.7,107.1,55.8,107.3z"/>
	<path class="st2" d="M55.8,21.3c1.6,0,3.2,0,4.9,0c0.3,0,0.6,0,0.8,0.1c0.9,0.2,1.3,0.9,1.3,1.7c0,0.9-0.6,1.5-1.4,1.6
		c-0.7,0.1-1.5,0.1-2.2,0.1c-2.7,0-5.4,0-8.1,0c-0.2,0-0.5,0-0.7-0.1c-1-0.2-1.5-0.8-1.5-1.8c0-0.9,0.7-1.6,1.6-1.6
		c0.7,0,1.4,0,2.1,0C53.7,21.3,54.7,21.3,55.8,21.3L55.8,21.3z"/>
	<path class="st2" d="M15.2,77.5c-0.7,0-1.3-0.4-1.5-1.1c-0.7-2.2-1.4-4.3-2-6.5c-0.3-0.9,0.2-1.7,1.2-2c0.9-0.3,1.8,0.1,2.1,1
		c0.4,1,0.7,2.1,1,3.1c0.3,1,0.7,2.1,1,3.1C17.3,76.4,16.5,77.5,15.2,77.5z"/>
	<path class="st2" d="M93.5,79.8c0.7,0,1.2,0.4,1.6,1c0.3,0.6,0.2,1.2-0.1,1.7c-1.2,1.8-2.5,3.6-3.7,5.4c-0.6,0.8-1.5,1-2.3,0.4
		c-0.8-0.5-1.1-1.5-0.5-2.3c1.2-1.8,2.5-3.6,3.7-5.4C92.4,80.1,92.9,79.8,93.5,79.8z"/>
	<path class="st2" d="M23.6,86.9c-0.1,0.7-0.5,1.4-1.2,1.6c-0.6,0.2-1.3,0.1-1.8-0.5c-0.3-0.3-0.5-0.6-0.7-0.9c-1-1.5-2.1-3-3-4.5
		c-0.8-1.3-0.3-2.5,1.2-2.8c0.2,0,0.6,0,0.7,0.2c0.4,0.3,0.9,0.7,1.2,1.1c1.1,1.5,2.1,3.1,3.2,4.6C23.3,86.1,23.4,86.5,23.6,86.9z"
		/>
	<path class="st2" d="M98.3,67.8c1.2,0,2,1.1,1.6,2.2c-0.6,2.1-1.3,4.2-2,6.3c-0.2,0.7-0.7,1.1-1.3,1.2c-1.1,0.2-2.3-1-1.9-2.1
		c0.6-2.2,1.3-4.4,2-6.5C96.9,68.2,97.6,67.8,98.3,67.8z"/>
	<path class="st2" d="M26.3,89.9c0.3,0.1,0.7,0.2,0.9,0.4c1.7,1.4,3.5,2.7,5.2,4.1c0.5,0.4,0.7,0.9,0.6,1.6
		c-0.2,0.7-0.5,1.2-1.2,1.4c-0.4,0.2-0.8,0.1-1.2-0.2c-1.9-1.5-3.8-3-5.7-4.5c-0.5-0.4-0.6-1-0.3-1.7C24.9,90.4,25.5,89.9,26.3,89.9
		z"/>
	<path class="st2" d="M80.1,97.6c-0.4-0.3-0.8-0.6-1.1-1c-0.7-0.7-0.6-1.5,0.1-2.2c1.8-1.4,3.5-2.9,5.3-4.3c0.5-0.4,1.3-0.4,1.9,0
		s1,1.1,0.8,1.8c-0.1,0.3-0.3,0.6-0.5,0.8c-1.8,1.5-3.7,2.9-5.5,4.4C80.8,97.4,80.4,97.5,80.1,97.6z"/>
	<path class="st2" d="M47.1,45.6c0,1.3-1.2,2.1-2.3,1.7c-0.3-0.1-0.7-0.4-0.9-0.6c-1.1-1-2.1-2.1-3.2-3.2c-0.9-0.9-0.8-1.8,0.2-2.6
		c0.8-0.7,0.8-0.7,1.8-0.1c0.2,0.1,0.4,0.3,0.6,0.5c1,1,2.1,2,3.1,3.1C46.8,44.7,47.1,45.1,47.1,45.6z"/>
	<path class="st2" d="M64.5,45.7c0.1-0.6,0.3-1,0.6-1.4c1.1-1.2,2.3-2.3,3.4-3.4c0.8-0.7,1.6-0.7,2.4,0.1c0.9,0.9,0.9,1.1,0.2,2.1
		c-0.1,0.2-0.2,0.3-0.3,0.4c-1.1,1.1-2.1,2.2-3.2,3.2c-0.9,0.9-2.2,0.8-2.8-0.2C64.6,46.3,64.6,46,64.5,45.7z"/>
	<path class="st2" d="M97.5,61.5c0-0.6,0.1-1.2,0.1-1.8c0.1-1.1,0.8-1.8,1.8-1.7c0.9,0,1.7,0.8,1.7,1.8c0,1.2-0.1,2.4-0.2,3.6
		c-0.1,1-0.9,1.6-1.8,1.6c-0.9-0.1-1.6-0.8-1.6-1.8C97.5,62.5,97.5,62,97.5,61.5L97.5,61.5z"/>
	<path class="st2" d="M41.9,100.1c0,1.5-1.1,2.3-2.3,1.9s-2.3-1-3.4-1.5c-0.9-0.4-1.2-1.3-0.8-2.2c0.3-0.8,1.3-1.3,2.1-0.9
		c1.2,0.5,2.4,1,3.5,1.5C41.6,99.1,41.8,99.7,41.9,100.1z"/>
	<path class="st2" d="M10.5,61.2c0-0.5,0-1,0-1.5c0-1,0.8-1.8,1.7-1.8c1,0,1.7,0.7,1.7,1.8c0.1,1.1,0.1,2.2,0.2,3.3
		c0,1-0.7,1.9-1.6,2c-1,0.1-1.7-0.6-1.8-1.7C10.6,62.5,10.5,61.9,10.5,61.2L10.5,61.2z"/>
	<path class="st2" d="M74.6,97.2c1.1,0,2,1,1.8,2c-0.1,0.5-0.6,1-1,1.2c-1.1,0.6-2.2,1.1-3.4,1.5c-0.9,0.3-1.7-0.1-2.1-0.9
		s-0.1-1.7,0.6-2.1c1.2-0.6,2.5-1.1,3.7-1.6C74.4,97.2,74.6,97.2,74.6,97.2z"/>
	<path class="st2" d="M75,23c0-7.7,6.3-13.9,14-13.9s13.9,6.2,13.9,14c0,7.7-6.3,13.9-14.1,13.9C81.2,37,75,30.6,75,23z M87.5,26.5
		c-0.7-0.5-1.5-1-2.2-1.6c-1.3-1.2-1.9-2.6-1.6-4.4c0.4-2.2,1.7-3.7,3.8-4.3c2.2-0.6,4.1,0.1,5.5,1.8c1.3,1.6,2,4.5-0.4,6.6
		c-0.6,0.5-1.2,1-1.9,1.4c-0.1,0.1-0.2,0.2-0.4,0.2v0.1c3-0.1,4.6,1.6,5.5,4.2c0.2-0.1,0.2-0.2,0.3-0.2c2.7-2.5,3.6-5.7,3.1-9.2
		c-0.9-5.9-6.4-9.7-12.3-8.6c-7.7,1.6-10.6,10-6.6,16.2c0.4,0.7,1,1.3,1.7,1.8C82.8,27.9,84.7,26.5,87.5,26.5z M89,30
		c-0.8,0-1.5,0.1-2.2,0.1c-0.6,0-1,0.3-1.1,0.9c-0.1,0.5-0.2,0.9-0.2,1.4c0,0.4,0.2,0.6,0.6,0.7c0.3,0.1,0.6,0.1,0.9,0.2
		c1.6,0.4,3.3,0.2,4.9-0.2c0.2-0.1,0.4-0.2,0.6-0.4c0.5-0.8-0.2-2.4-1.2-2.5C90.4,30,89.7,30,89,30z M90.7,21.3c0-1-0.8-1.8-1.7-1.7
		c-0.9,0-1.7,0.8-1.7,1.7c0,1,0.8,1.8,1.7,1.8C89.9,23,90.7,22.2,90.7,21.3z"/>
	<path class="st2" d="M8.8,22.9c0-7.6,6.2-13.8,13.9-13.8s14,6.3,14,14c0,7.6-6.3,13.9-14,13.9S8.8,30.7,8.8,22.9z M21.4,26.5
		c-0.8-0.6-1.5-1-2.2-1.6s-1.2-1.3-1.5-2.1c-0.8-2.2,0.3-4.9,2.4-6.1c2.2-1.3,4.9-0.8,6.5,1.1c1.9,2.2,1.8,4.9-0.3,6.9
		c-0.6,0.5-1.2,1-1.9,1.5c-0.1,0.1-0.2,0.2-0.5,0.3c3,0,4.8,1.5,5.7,4.3c0.3-0.3,0.6-0.6,0.8-0.9c2.1-2.4,2.9-5.2,2.5-8.4
		c-0.8-5.7-6.3-9.8-12-8.8c-5.1,0.9-8.6,4.9-8.8,10c-0.1,2.4,0.6,4.7,2.1,6.6c0.4,0.5,0.9,0.9,1.5,1.5
		C16.7,27.9,18.5,26.5,21.4,26.5z M22.7,30L22.7,30c-0.5,0-1-0.1-1.5,0c-1.4,0-2,0.6-2.1,2c0,0.7,0.1,0.9,0.8,1.1
		c1.7,0.4,3.4,0.5,5.2,0c1-0.2,1.1-0.4,1-1.4c-0.1-1-0.6-1.6-1.6-1.8C24,29.9,23.4,30,22.7,30z M21,21.3c0,1,0.8,1.7,1.7,1.7
		c0.9,0,1.7-0.8,1.7-1.8s-0.8-1.7-1.7-1.7C21.7,19.5,21,20.3,21,21.3z"/>
	<path class="st2" d="M55.8,57.9c7.7,0,13.9,6.3,14,13.9c0,7.7-6.2,14-13.9,14S42,79.6,42,71.9C41.9,64.2,48.1,57.9,55.8,57.9z
		 M62.7,79.5c0.1,0,0.1,0.1,0.2,0.1c0.3-0.3,0.5-0.7,0.8-1c2.1-2.5,2.9-5.3,2.4-8.5c-1.2-7.8-10.4-11.5-16.6-6.7
		c-3.1,2.4-4.4,5.7-4.1,9.6c0.2,2.5,1.2,4.6,3.1,6.2c0.1,0.1,0.2,0.2,0.3,0.3c0.8-2.7,2.6-4.1,5.5-4.3c-0.5-0.3-0.9-0.5-1.2-0.8
		c-1.1-0.7-2-1.6-2.4-2.9c-0.8-2.3,0.4-5.1,2.7-6.2s5.2-0.4,6.6,1.7c1.9,2.8,0.9,6.4-2.3,7.9c-0.1,0.1-0.3,0.1-0.5,0.3
		C60.2,75.4,61.9,76.9,62.7,79.5z M55.8,78.8L55.8,78.8c-0.7,0-1.4,0-2.1,0.1c-1.1,0.2-1.7,1.3-1.3,2.3c0.1,0.2,0.3,0.5,0.6,0.6
		c1.9,0.7,3.9,0.6,5.9,0c0.2-0.1,0.5-0.4,0.5-0.6c0.3-1.2-0.6-2.3-1.9-2.4C56.9,78.8,56.4,78.8,55.8,78.8z M55.8,71.8
		c1,0,1.7-0.7,1.7-1.7s-0.8-1.7-1.7-1.7c-1,0-1.7,0.7-1.7,1.7C54.1,71.1,54.8,71.8,55.8,71.8z"/>
</g>
</svg>
